<svg width="628" height="382" viewBox="0 0 628 382" fill="none" xmlns="http://www.w3.org/2000/svg">
<g clip-path="url(#clip0)">
<path d="M294.365 54.2149C267.529 70.4629 214.207 -0.31809 167.35 24.0969C129.088 44.0329 131.71 98.5249 107.526 121.168C83.3418 143.811 22.2118 133.212 3.67981 171.024C-15.6272 210.419 34.3048 378.516 315.874 381.666C597.443 384.816 628.825 239.989 627.867 197.413C626.775 148.87 575.654 162.478 543.614 142.69C511.574 122.902 490.038 29.2069 439.857 8.52591C378.228 -16.8741 352.094 19.2629 294.365 54.2149Z" fill="#E1F9FF"/>
<path d="M471.507 90.3659C471.507 90.3659 394.801 91.7359 388.409 83.9739C382.017 76.2119 389.349 74.8419 401.435 72.5589C413.521 70.2759 404.047 57.2629 412.265 56.3499C420.484 55.4369 421.967 66.2809 431.099 64.9109C440.231 63.5409 436.236 53.2679 444.797 48.8159C457.575 42.1709 459.437 71.5889 471.507 69.0419C479.726 67.3079 478.698 59.4319 484.52 60.8019C492.527 62.6859 486.079 77.1249 493.176 79.4079C500.272 81.6909 515.796 76.6679 512.6 83.9739C509.403 91.2789 471.507 90.3659 471.507 90.3659Z" fill="#AFF5F9"/>
<path d="M121.022 132.592C121.022 132.592 59.6128 133.689 54.4958 127.475C49.3788 121.261 55.2488 120.164 64.9248 118.337C74.6008 116.51 67.0158 106.092 73.5948 105.361C80.1748 104.63 81.3618 113.311 88.6728 112.215C95.9838 111.118 92.7848 102.894 99.6388 99.3295C109.869 94.0095 111.359 117.561 121.022 115.522C127.602 114.134 126.779 107.828 131.44 108.925C137.85 110.433 132.688 121.993 138.37 123.82C144.052 125.647 156.479 121.627 153.92 127.475C151.361 133.323 121.022 132.592 121.022 132.592Z" fill="#AFF5F9"/>
<path d="M563.543 86.1465H195.38V269.779H563.543V86.1465Z" fill="#3DD0F2"/>
<path d="M401.865 42.293H284.995V311.058H401.865V42.293Z" fill="#0055FF"/>
<path d="M309.531 67.4316H192.661V288.495H309.531V67.4316Z" fill="#78E4EF"/>
<path d="M245.431 263.139L279.717 236.162L336.959 257.009L385.456 208.404L423.839 231.635L521.407 135.018L553.061 158.149" stroke="#C0FCFF" stroke-width="2.3851" stroke-miterlimit="10" stroke-linecap="round" stroke-linejoin="round"/>
<path d="M215.515 103.207H98.645V324.27H215.515V103.207Z" fill="#3381FF"/>
<path d="M182.109 251.885C182.109 263.545 174.124 273.315 163.332 276.095L164.71 281.431C177.866 278.043 187.587 266.099 187.587 251.885C187.587 247.567 186.685 243.46 185.066 239.738C183.52 240.408 181.817 241.145 180.033 241.919C181.363 244.974 182.109 248.341 182.109 251.885Z" fill="#FEBF50"/>
<path d="M132.051 251.885C132.051 242.915 136.785 235.071 143.875 230.651L140.97 225.98C132.328 231.366 126.573 240.951 126.573 251.884C126.573 259.154 129.12 265.827 133.365 271.068L137.628 267.62C134.145 263.32 132.051 257.85 132.051 251.885Z" fill="#3DD0F2"/>
<path d="M157.08 221.379C151.164 221.379 145.646 223.068 140.97 225.983L143.875 230.654C147.711 228.263 152.227 226.858 157.081 226.858C167.36 226.858 176.182 233.06 180.036 241.921C181.82 241.148 183.522 240.41 185.069 239.74C180.371 228.937 169.61 221.379 157.08 221.379Z" fill="#AFF5F9"/>
<path d="M157.08 276.915C149.221 276.915 142.216 273.287 137.627 267.621L133.364 271.069C138.957 277.974 147.501 282.393 157.08 282.393C159.715 282.393 162.272 282.059 164.71 281.431L163.332 276.095C161.33 276.611 159.243 276.915 157.08 276.915Z" fill="#0055FF"/>
<path d="M138.349 140.979H132.88V207.165H138.349V140.979Z" fill="#0055FF"/>
<path d="M152.659 140.979H147.19V207.165H152.659V140.979Z" fill="#0055FF"/>
<path d="M223.667 236.469C223.667 236.469 236.252 222.599 247.564 212.454C261.161 200.261 279.751 199.411 300.139 199.839C331.319 200.493 342.741 188.04 349.778 172.82" stroke="#3DD0F2" stroke-width="2" stroke-miterlimit="10"/>
<path d="M165.777 140.979H160.308V207.165H165.777V140.979Z" fill="#0055FF"/>
<path d="M180.088 140.979H174.619V207.165H180.088V140.979Z" fill="#0055FF"/>
<path d="M138.349 194.346H132.88V207.166H138.349V194.346Z" fill="#AFF5F9"/>
<path d="M152.659 183.166H147.19V207.166H152.659V183.166Z" fill="#AFF5F9"/>
<path d="M165.777 160.357H160.308V207.165H165.777V160.357Z" fill="#AFF5F9"/>
<path d="M180.088 183.166H174.619V207.166H180.088V183.166Z" fill="#AFF5F9"/>
<path d="M236.936 198.633C243.429 190.031 251.975 180.624 261.829 174.365C283.891 160.353 323.841 166.201 341.984 149.897C367.939 126.572 360.262 105.74 376.18 80.6843C396.48 48.7293 431.175 37.0293 431.175 37.0293" stroke="#FEBF50" stroke-width="1.7888" stroke-miterlimit="10"/>
<path d="M336.96 106.115H266.003V110.885H336.96V106.115Z" fill="white"/>
<path d="M325.034 118.043H254.077V122.813H325.034V118.043Z" fill="white"/>
<path d="M587.451 201.426H516.494V206.196H587.451V201.426Z" fill="#0055FF"/>
<path d="M575.526 214.545H504.569V219.315H575.526V214.545Z" fill="#0055FF"/>
<path d="M263.021 131.16H227.841V135.93H263.021V131.16Z" fill="white"/>
<path d="M279.717 241.67C282.76 241.67 285.226 239.204 285.226 236.161C285.226 233.119 282.76 230.652 279.717 230.652C276.674 230.652 274.208 233.119 274.208 236.161C274.208 239.204 276.674 241.67 279.717 241.67Z" fill="#78E4EF" stroke="#C0FCFF" stroke-width="2.3851" stroke-miterlimit="10" stroke-linecap="round" stroke-linejoin="round"/>
<path d="M385.456 213.868C388.498 213.868 390.965 211.401 390.965 208.359C390.965 205.316 388.498 202.85 385.456 202.85C382.413 202.85 379.947 205.316 379.947 208.359C379.947 211.401 382.413 213.868 385.456 213.868Z" fill="#0055FF" stroke="#C0FCFF" stroke-width="2.3851" stroke-miterlimit="10" stroke-linecap="round" stroke-linejoin="round"/>
<path d="M423.839 237.159C426.882 237.159 429.348 234.692 429.348 231.65C429.348 228.607 426.882 226.141 423.839 226.141C420.797 226.141 418.33 228.607 418.33 231.65C418.33 234.692 420.797 237.159 423.839 237.159Z" fill="#3DD0F2" stroke="#C0FCFF" stroke-width="2.3851" stroke-miterlimit="10" stroke-linecap="round" stroke-linejoin="round"/>
<path d="M520.961 140.526C524.004 140.526 526.47 138.059 526.47 135.017C526.47 131.974 524.004 129.508 520.961 129.508C517.919 129.508 515.452 131.974 515.452 135.017C515.452 138.059 517.919 140.526 520.961 140.526Z" fill="#3DD0F2" stroke="#C0FCFF" stroke-width="2.3851" stroke-miterlimit="10" stroke-linecap="round" stroke-linejoin="round"/>
<path d="M336.959 263.137C340.002 263.137 342.468 260.671 342.468 257.628C342.468 254.586 340.002 252.119 336.959 252.119C333.917 252.119 331.45 254.586 331.45 257.628C331.45 260.671 333.917 263.137 336.959 263.137Z" fill="#0055FF" stroke="#C0FCFF" stroke-width="2.3851" stroke-miterlimit="10" stroke-linecap="round" stroke-linejoin="round"/>
<path d="M46.2588 271.084C46.2588 271.084 46.7498 270.465 47.3828 269.529C48.9338 267.233 47.1458 264.475 50.8108 259.818C52.5558 257.601 55.5448 256.778 57.4048 255.508C58.8828 254.499 60.7328 252.836 60.6738 252.748C60.6148 252.661 61.1198 256.526 60.3268 262.592C59.9408 265.548 58.6248 268.276 55.1808 269.756C51.8798 271.175 48.8198 270.09 48.2268 270.394C47.1018 270.971 47.4268 272.495 47.1708 272.623C46.9138 272.753 46.2588 271.084 46.2588 271.084Z" fill="#6AE3EF"/>
<path d="M19.792 214.164C19.792 214.164 31.419 219.18 38.873 240.944C43.102 253.292 39.469 277.522 63.022 286.839C72.555 290.61 94.828 294.852 94.828 294.852" stroke="#6AE3EF" stroke-width="1.1925" stroke-miterlimit="10" stroke-linecap="round" stroke-linejoin="round"/>
<path d="M47.4618 274.518C47.4618 274.518 47.2448 275.009 46.0948 274.952C45.2048 274.908 40.6558 271.562 35.5458 271.564C29.4718 271.567 22.6078 277.151 18.4048 276.507C18.4048 276.507 28.0058 285.21 37.8678 283.281C45.1588 281.855 45.8738 276.919 46.5628 276.25C47.3498 275.487 48.0578 275.655 48.0578 275.655L47.4618 274.518Z" fill="#6AE3EF"/>
<path d="M32.313 226.901C32.313 226.901 33.41 225.144 32.542 222.083C31.121 217.072 34.133 215.582 36.652 213.296C39.171 211.01 38.872 207.631 38.872 207.631C38.872 207.631 42.524 214.086 41.332 218.414C40.139 222.741 39.245 222.961 34.102 225.718C33.349 226.122 32.81 228.201 32.81 228.201L32.313 226.901Z" fill="#6AE3EF"/>
<path d="M27.5978 221.215C27.5978 221.215 25.9588 221.567 23.8678 220.066C20.4448 217.609 18.4838 219.492 16.0528 220.781C13.6218 222.07 11.1328 220.916 11.1328 220.916C11.1328 220.916 15.0428 225.468 18.6628 225.748C22.2828 226.028 22.6958 225.408 26.2068 222.251C26.7208 221.789 28.4508 221.95 28.4508 221.95L27.5978 221.215Z" fill="#6AE3EF"/>
<path d="M37.278 236.377C37.278 236.377 36.538 237.022 35.065 236.522C33.592 236.022 30.112 233.932 27.144 233.388C22.797 232.592 16.705 236.405 13.327 234.536C12.739 234.211 19.461 241.462 25.69 241.769C31.611 242.061 34.685 237.778 35.965 237.602C37.245 237.426 37.868 237.425 37.868 237.425L37.278 236.377Z" fill="#6AE3EF"/>
<path d="M40.343 247.096C40.343 247.096 41.096 246.37 41.512 245.32C41.859 244.443 41.29 241.145 42.626 238.222C43.798 235.656 45.608 235.387 47.45 232.009C48.307 230.438 48.941 228.277 48.866 228.202C48.791 228.127 51.077 231.562 51.45 237.668C51.632 240.644 50.382 244.103 47.475 245.519C44.568 246.935 42.357 246.91 41.761 247.208C41.165 247.506 40.671 248.723 40.444 248.897C40.217 249.071 40.343 247.096 40.343 247.096Z" fill="#6AE3EF"/>
<path d="M40.92 253.704C40.92 253.704 40.38 254.261 39.587 254.202C38.794 254.143 35.104 250.65 30.573 250.138C25.187 249.53 18.54 253.792 14.877 252.799C14.877 252.799 21.662 261.33 30.617 260.855C37.923 260.467 39.354 255.911 40.044 255.404C40.734 254.897 41.502 255.268 41.502 255.268L40.92 253.704Z" fill="#6AE3EF"/>
<path d="M100.616 253.249C106.937 251.753 112.74 245.92 117.51 249.853C122.28 253.785 114.529 259.416 117.51 262.589C120.491 265.762 130.032 258.612 134.007 262.589C139.187 267.771 122.479 277.559 120.293 282.564C118.107 287.569 129.635 281.67 128.243 288.105C126.852 294.54 115.324 296.506 115.522 299.902C115.721 303.298 121.087 299.008 122.479 304.192C123.87 309.376 100.218 318.164 95.2489 317.702C90.2799 317.24 62.8509 290.965 65.0379 278.81C67.2249 266.655 96.8399 254.143 100.616 253.249Z" fill="#3DD0F2"/>
<path d="M54.6289 295.973C47.5829 294.754 47.9709 294.811 42.2859 291.51C37.4149 288.681 33.2319 288.786 33.2319 288.786C33.2319 288.786 35.9699 290.115 40.5149 295.361C42.9539 298.176 45.5359 299.812 50.7119 301.495C58.1889 303.925 61.1739 308.554 63.8009 310.698C70.8869 316.484 71.9779 311.715 71.9779 311.715C71.9779 311.715 63.5089 297.509 54.6289 295.973Z" fill="#FEBF50"/>
<path d="M49.5928 303.174C42.4818 303.921 42.8699 303.871 36.5009 302.243C31.0429 300.848 27.0479 302.089 27.0479 302.089C27.0479 302.089 30.0449 302.622 35.8479 306.43C38.9619 308.474 41.8919 309.344 47.3299 309.553C55.1859 309.854 59.3199 313.493 62.4309 314.841C70.8249 318.477 70.5758 313.591 70.5758 313.591C70.5758 313.591 58.5548 302.232 49.5928 303.174Z" fill="#FEBF50"/>
<path d="M48.1689 311.437C41.5679 314.186 41.9259 314.027 35.3569 314.288C29.7279 314.512 26.2539 316.843 26.2539 316.843C26.2539 316.843 29.2779 316.497 35.9269 318.488C39.4949 319.556 42.5519 319.553 47.8229 318.198C55.4369 316.24 60.4389 318.546 63.8059 318.948C72.8889 320.032 71.2529 315.422 71.2529 315.422C71.2529 315.422 56.4879 307.972 48.1689 311.437Z" fill="#FEBF50"/>
<path d="M88.8936 319.644C87.6206 319.064 48.9886 294.961 50.1706 285.233C50.7346 280.593 58.9146 285.755 60.2866 280.765C61.9466 274.724 43.3446 263.644 47.0416 257.788C51.4526 250.8 63.7276 261.612 64.9036 259.045C66.0796 256.477 50.7186 244.395 55.4776 236.467C59.2196 230.233 64.8056 239.755 68.1806 235.801C71.5556 231.848 56.6886 208.659 64.1826 205.073C68.0876 203.205 71.5716 209.339 73.3026 204.388C75.0336 199.437 70.0356 180.021 79.6936 182.021C89.3516 184.021 87.3366 206.343 87.2476 212.243C87.1586 218.143 88.3106 217.332 94.6436 216.66C100.978 215.988 102.732 226.67 95.5716 234.366C88.4116 242.062 98.3586 234.381 106.051 236.842C113.743 239.303 97.9306 256.598 97.4546 262.709C96.9786 268.82 107.636 259.5 111.55 265.823C115.464 272.147 93.9396 294.395 92.2356 299.854C90.5316 305.313 95.2456 319.311 95.2456 319.311C95.2456 319.311 92.6656 321.363 88.8936 319.644Z" fill="#277AFF"/>
<path d="M85.1125 314.211C85.1125 314.211 74.4545 296.498 77.2955 259.604C78.5345 243.518 79.6515 220.336 79.7455 212.051C79.8945 199.007 78.4485 183.43 78.4485 183.43" stroke="#1039B2" stroke-width="0.5963" stroke-miterlimit="10" stroke-linecap="round" stroke-linejoin="round"/>
<path d="M105.609 238.957C105.609 238.957 97.2373 243.578 87.2743 251.74C80.6783 257.144 77.2183 260.653 77.2183 260.653" stroke="#1039B2" stroke-width="0.5963" stroke-miterlimit="10" stroke-linecap="round" stroke-linejoin="round"/>
<path d="M77.3934 258.309C77.3934 258.309 73.2244 253.677 65.9324 245.938C63.4974 243.354 57.0874 238.137 57.0874 238.137" stroke="#1039B2" stroke-width="0.5963" stroke-miterlimit="10" stroke-linecap="round" stroke-linejoin="round"/>
<path d="M77.8564 288.671C78.1594 288.472 84.5464 282.537 93.7584 276.05C100.814 271.081 109.261 266.41 109.261 266.41" stroke="#1039B2" stroke-width="0.5963" stroke-miterlimit="10" stroke-linecap="round" stroke-linejoin="round"/>
<path d="M77.3364 283.903C77.3364 283.903 69.2114 275.454 63.2484 269.789C57.2854 264.124 50.1304 258.309 50.1304 258.309" stroke="#1039B2" stroke-width="0.5963" stroke-miterlimit="10" stroke-linecap="round" stroke-linejoin="round"/>
<path d="M78.8682 234.499C78.8832 234.202 84.9392 228.642 88.7642 225.564C93.0632 222.105 96.5412 220.297 96.5412 220.297" stroke="#1039B2" stroke-width="0.5963" stroke-miterlimit="10" stroke-linecap="round" stroke-linejoin="round"/>
<path d="M79.0134 231.628C79.0134 231.628 74.0224 220.305 71.1994 216.273C68.5054 212.425 65.3364 207.875 65.3364 207.875" stroke="#1039B2" stroke-width="0.5963" stroke-miterlimit="10" stroke-linecap="round" stroke-linejoin="round"/>
<path d="M111.647 324.27C111.647 324.27 73.806 324.27 71.995 324.27C52.889 324.27 44.842 324.387 45.759 319.08C46.259 316.187 51.468 318.484 55.023 314.209C57.91 310.738 53.96 303.017 55.697 301.173C58.69 297.995 69.049 309.568 73.22 304.663C76.187 301.173 74.182 292.345 78.852 292.397C85.128 292.467 84.218 310.434 89.585 306.857C94.951 303.279 103.098 296.674 102.703 303.577C102.305 310.517 100.914 316.248 107.175 312.596C113.436 308.944 119.1 305.672 119.1 311.631C119.1 317.59 119.987 320.72 124.466 319.081C130.578 316.845 134.254 323.631 130.429 323.95C126.572 324.271 111.647 324.27 111.647 324.27Z" fill="#AFF5F9"/>
<path d="M452.708 97.9096V113.094C452.708 113.094 453.09 116.102 449.986 116.962C448.376 117.408 445.682 118.473 445.682 118.473C445.682 118.473 453.746 126.222 462.197 124.216C470.649 122.211 471.955 117.922 471.955 117.922C471.955 117.922 466.005 116.457 466.005 114.091C466.005 108.001 466.511 84.0996 466.511 84.0996L452.708 97.9096Z" fill="#FA8E6E"/>
<path d="M454.889 355.848C488.211 355.848 515.224 354.952 515.224 353.848C515.224 352.743 488.211 351.848 454.889 351.848C421.567 351.848 394.554 352.743 394.554 353.848C394.554 354.952 421.567 355.848 454.889 355.848Z" fill="#BAE2E8"/>
<path d="M385.456 182.941C385.456 182.941 386.233 184.904 388.618 184.904C391.003 184.904 397.978 185.5 402.35 185.301C406.723 185.102 431.175 176.357 431.175 176.357L430.127 165.723C430.127 165.723 406.248 180.174 402.028 180.96C397.807 181.747 386.848 182.941 385.456 182.941Z" fill="#FA8E6E"/>
<path d="M443.539 119.736C443.539 119.736 438.713 123.029 437.237 129.789C434.405 142.758 438.513 157.161 436.984 159.164C434.45 162.485 414.773 174.68 414.773 174.68C414.773 174.68 415.676 173.986 415.804 177.961C415.873 180.101 419.561 180.43 419.561 180.43C419.561 180.43 446.148 172.812 448.263 171.833C453.21 169.544 449.853 154.295 449.853 154.295C449.853 154.295 443.99 140.152 442.4 132.317C440.81 124.482 443.539 119.736 443.539 119.736Z" fill="url(#paint0_linear)"/>
<path d="M445.901 339.463V345.741V353.194L420.981 353.168C420.981 353.168 418.972 352.747 418.995 351.624C419.03 349.913 419.679 349.772 421.237 349.584C422.796 349.396 428.909 348.196 432.081 346.626C436.882 344.25 437.354 338.688 437.354 338.688L445.901 339.463Z" fill="black"/>
<path d="M494.574 338.445L495.215 345.984V353.437L470.295 353.411C470.295 353.411 468.286 352.99 468.309 351.867C468.344 350.156 468.993 350.015 470.551 349.827C472.11 349.639 478.171 348.331 481.395 346.869C486.822 344.408 486.668 338.931 486.668 338.931L494.574 338.445Z" fill="black"/>
<path d="M452.627 115.026C452.627 115.026 459.14 112.947 460.389 108.551C461.638 104.155 461.523 97.4785 461.523 97.4785L452.627 104.559L452.652 111.891L452.627 115.026Z" fill="url(#paint1_linear)"/>
<path d="M436.707 341.293C436.707 341.293 434.727 288.4 434.45 276.095C434.173 263.79 437.912 228.293 439.585 215.53C441.258 202.767 440.989 185.951 440.989 185.951L465.926 193.93C465.926 193.93 469.178 209.976 464.83 226.999C463.624 231.72 454.22 288.493 453.554 306.716C453.279 314.235 446.143 341.52 446.143 341.52C446.143 341.52 447.536 342.401 441.158 342.27C437.395 342.193 436.707 341.293 436.707 341.293Z" fill="url(#paint2_linear)"/>
<path d="M482.771 194.48C482.771 194.48 485.225 201.344 485.843 214.543C486.551 229.668 485.53 252.358 487.221 269.778C489.599 294.28 494.412 303.633 494.906 313.561C495.485 325.188 495.216 342.122 495.216 342.122C495.216 342.122 493.228 342.172 491.196 342.321C489.153 342.471 485.9 342.379 485.9 342.379C485.9 342.379 471.147 293.719 468.309 285.05C459.023 256.684 450.692 215.526 450.251 210.345C449.42 200.561 448.263 192.059 448.263 192.059L482.771 194.48Z" fill="#FEBF50"/>
<path d="M437.026 88.4155C437.525 91.5225 442.046 110.207 447.619 110.731C453.567 111.29 459.448 106.23 460.546 102.661C461.644 99.0915 467.86 88.4825 465.625 83.8095C461.095 74.3385 449.446 75.4485 445.328 77.6785C440.886 80.0835 436.307 83.9435 437.026 88.4155Z" fill="#FA8E6E"/>
<path d="M439.817 123.538C442.575 119.215 447.867 117.526 447.867 117.526C447.867 117.526 454.178 125.774 463.569 121.153C472.96 116.532 471.724 117.14 471.724 117.14C471.724 117.14 474.203 117.824 479.768 121.596C485.403 125.415 483.644 158.873 483.644 171.69C483.644 184.507 487.222 206.569 487.222 206.569C487.222 206.569 473.508 211.98 460.39 211.98C447.272 211.98 438.626 207.846 438.626 207.846C438.626 207.846 441.756 163.534 438.924 154.246C436.092 144.958 436.927 128.068 439.817 123.538Z" fill="#0055FF"/>
<path d="M439.186 181.43C439.186 181.43 460.669 187.416 472.429 187.467C485.046 187.522 483.643 171.691 483.643 171.691L484.054 141.342C484.054 141.342 465.887 170.05 454.721 174.384C443.555 178.718 439.186 181.43 439.186 181.43Z" fill="url(#paint3_linear)"/>
<path d="M441.929 171.217C441.929 171.217 457.302 158.967 459.99 147.967C462.679 136.967 471.183 130.717 471.183 130.717C471.183 130.717 485.799 160.467 471.739 168.592C457.679 176.717 436.338 176.241 441.929 171.217Z" fill="url(#paint4_linear)"/>
<path d="M432.953 173.362C432.953 173.362 419.337 174.736 417.963 174.889C416.589 175.042 411.399 171.989 408.804 171.836C406.209 171.683 399.034 179.621 400.713 179.926C402.392 180.231 407.43 177.178 408.804 177.178C410.178 177.178 413.536 180.078 415.521 180.689C417.505 181.3 434.45 180.689 434.45 180.689C434.45 180.689 434.204 174.431 432.953 173.362Z" fill="#FA8E6E"/>
<path d="M468.454 134.27C469.03 127.886 471.415 122.114 476.985 121.595C483.345 121.003 486.062 129.643 485.829 136.804C485.382 150.593 479.493 171.005 476.189 174.816C472.313 179.288 434.003 181.822 434.003 181.822C434.003 181.822 432.362 175.852 433.254 172.272C433.572 170.996 462.435 167.851 464.786 163.486C467.026 159.33 468.175 137.356 468.454 134.27Z" fill="#0055FF"/>
<path d="M379.22 180.705L361.381 149.807C360.312 150.424 359.945 151.792 360.563 152.861L377.805 182.724V182.941H412.538C413.773 182.941 414.774 181.94 414.774 180.705H379.22Z" fill="white"/>
<path d="M448.694 72.1025C443.443 73.2785 442.585 74.7065 440.429 76.1405C437.633 78.0005 435.549 78.0705 433.583 78.3315C429.048 78.9325 429.224 84.1515 431.176 86.7165C436.305 93.4565 448.994 84.8215 449.354 86.4815C449.869 88.8565 451.528 95.0915 453.763 95.9315C454.83 96.3325 454.514 92.9155 457.076 92.4505C458.979 92.1055 459.944 94.3075 458.964 100.393C458.293 104.558 464.679 106.349 466.13 106.116C467.927 105.827 466.223 101.922 467.859 96.0475C469.566 89.9185 469.554 67.4305 448.694 72.1025Z" fill="black"/>
<path d="M430.173 82.7009C430.048 82.5509 429.978 82.4609 429.978 82.4609C429.978 82.4609 430.04 82.5609 430.173 82.7009Z" fill="white"/>
</g>
<defs>
<linearGradient id="paint0_linear" x1="432.981" y1="156.112" x2="421.356" y2="165.362" gradientUnits="userSpaceOnUse">
<stop offset="2.0668e-05" stop-color="#0038D6"/>
<stop offset="0.9947" stop-color="#0055FF"/>
</linearGradient>
<linearGradient id="paint1_linear" x1="448.761" y1="100.907" x2="458.43" y2="107.123" gradientUnits="userSpaceOnUse">
<stop offset="0.3636" stop-color="#D8533D"/>
<stop offset="0.989" stop-color="#FA8E6E"/>
</linearGradient>
<linearGradient id="paint2_linear" x1="431.083" y1="271.837" x2="479.978" y2="240.831" gradientUnits="userSpaceOnUse">
<stop offset="0.0109" stop-color="#FF8B00"/>
<stop offset="0.0484" stop-color="#FF8E04"/>
<stop offset="0.469" stop-color="#FEA82D"/>
<stop offset="0.8005" stop-color="#FEB947"/>
<stop offset="1" stop-color="#FEBF50"/>
</linearGradient>
<linearGradient id="paint3_linear" x1="457.764" y1="153.043" x2="473.8" y2="187.734" gradientUnits="userSpaceOnUse">
<stop offset="2.0668e-05" stop-color="#0038D6"/>
<stop offset="0.9947" stop-color="#0055FF"/>
</linearGradient>
<linearGradient id="paint4_linear" x1="470.201" y1="157.417" x2="458.451" y2="153.042" gradientUnits="userSpaceOnUse">
<stop offset="2.0668e-05" stop-color="#0038D6"/>
<stop offset="0.9947" stop-color="#0055FF"/>
</linearGradient>
<clipPath id="clip0">
<rect width="627.888" height="381.717" fill="white"/>
</clipPath>
</defs>
</svg>
