<?xml version="1.0" encoding="utf-8"?>
<!-- Generator: Adobe Illustrator 16.0.0, SVG Export Plug-In . SVG Version: 6.00 Build 0)  -->
<!DOCTYPE svg PUBLIC "-//W3C//DTD SVG 1.1//EN" "http://www.w3.org/Graphics/SVG/1.1/DTD/svg11.dtd">
<svg version="1.1" id="Слой_1" xmlns="http://www.w3.org/2000/svg" xmlns:xlink="http://www.w3.org/1999/xlink" x="0px" y="0px"
	 width="664.436px" height="500px" viewBox="0 0 664.436 500" enable-background="new 0 0 664.436 500" xml:space="preserve">
<g>
	<rect fill="none" width="664.436" height="500"/>
	<g>
		<g>
			<linearGradient id="SVGID_1_" gradientUnits="userSpaceOnUse" x1="48.5024" y1="373.5625" x2="107.4502" y2="373.5625">
				<stop  offset="0" style="stop-color:#3076A1"/>
				<stop  offset="1" style="stop-color:#639C38"/>
			</linearGradient>
			<path fill="url(#SVGID_1_)" d="M53.653,295.669c5.083-2.432,10.142,13.75,10.142,13.75c8.639,11.416,20.712-3.771,19.532,13.294
				c-2.066,29.861,34.372,9.39,17.561,40.566s14.843,17.629,4.396,42.767c-10.446,25.139,3.094,55.121-12.625,42.801
				c0,0-13.841-30.352-28.114-39.742c-14.273-9.39,8.551-20.531,4.085-33.286c-6.487-18.525-22.115-17.798-10.847-37.705
				S36.375,303.932,53.653,295.669z"/>
			<g>
				<path fill="#FFFFFF" d="M97.637,437.424c-6.813-4.791-14.787-38.185-15.263-58.073c-0.244-10.188-3.255-14.433-5.913-18.178
					c-2.54-3.579-4.733-6.671-3.455-13.77c2.442-13.564-3.978-19.421-4.043-19.479l0.744-0.847c0.285,0.25,6.971,6.289,4.409,20.525
					c-1.194,6.632,0.774,9.406,3.265,12.917c2.615,3.686,5.869,8.271,6.121,18.803c0.51,21.346,8.663,52.874,14.784,57.179
					L97.637,437.424z"/>
			</g>
			<g>
				<linearGradient id="SVGID_2_" gradientUnits="userSpaceOnUse" x1="91.7451" y1="406.4551" x2="145.0527" y2="406.4551">
					<stop  offset="0" style="stop-color:#3076A1"/>
					<stop  offset="1" style="stop-color:#639C38"/>
				</linearGradient>
				<path fill="url(#SVGID_2_)" d="M100.187,439.898c-0.879,0-1.834-0.101-2.881-0.313c-2.626-0.53-4.348-1.916-5.118-4.117
					c-1.837-5.253,2.419-13.786,5.873-17.898c0.057-0.069,5.838-7.135,5.222-16.928c-0.104-1.642-0.274-3.161-0.424-4.502
					c-0.435-3.876-0.749-6.676,0.917-8.546c1.467-1.649,4.299-2.362,9.469-2.387c9.068-0.043,12.653-3.796,15.535-6.813
					c1.223-1.281,2.379-2.491,3.783-3.258l0,0c4.519-2.467,9.305-2.829,11.381-0.861c0.986,0.934,1.819,2.765,0.185,6.179
					c-1.492,3.119-3.428,5.096-4.984,6.682c-2.093,2.136-3.476,3.547-2.755,6.358c0.169,0.661,0.364,1.327,0.559,1.996
					c1.398,4.781,2.982,10.2-5.2,13.878c-1.736,0.78-3.319,1.401-4.715,1.949c-5.712,2.241-9.16,3.595-13.052,11.811
					c-0.753,1.591-1.419,3.099-2.062,4.556C108.85,434.639,106.528,439.898,100.187,439.898z M133.102,376.126
					c-1.25,0.683-2.296,1.778-3.508,3.047c-3.028,3.171-6.796,7.117-16.343,7.162c-4.754,0.022-7.417,0.643-8.633,2.009
					c-1.331,1.495-1.04,4.086-0.638,7.671c0.151,1.354,0.323,2.888,0.428,4.556c0.646,10.257-5.232,17.423-5.482,17.723
					c-3.419,4.071-7.292,12.175-5.673,16.804c0.629,1.8,2.068,2.938,4.277,3.385c7.707,1.558,9.834-3.264,13.359-11.253
					c0.646-1.464,1.314-2.979,2.074-4.583c4.083-8.62,7.893-10.114,13.66-12.377c1.384-0.544,2.952-1.159,4.664-1.929
					c7.288-3.275,5.973-7.772,4.581-12.533c-0.2-0.682-0.398-1.36-0.57-2.032c-0.877-3.427,0.853-5.192,3.043-7.427
					c1.575-1.607,3.36-3.429,4.772-6.38c0.74-1.547,1.35-3.648,0.056-4.875C141.465,373.479,137.137,373.923,133.102,376.126
					L133.102,376.126z"/>
			</g>
			<g>
				<linearGradient id="SVGID_3_" gradientUnits="userSpaceOnUse" x1="96.3022" y1="414.207" x2="136.313" y2="414.207">
					<stop  offset="0" style="stop-color:#3076A1"/>
					<stop  offset="1" style="stop-color:#639C38"/>
				</linearGradient>
				<path fill="url(#SVGID_3_)" d="M97.427,446.404l-1.125-0.06c0.055-1.057,1.475-25.977,11.48-33.271
					c10.978-8.001,14.438-16.6,16.086-22.371c1.942-6.801,11.828-8.619,12.248-8.693l0.196,1.109
					c-0.096,0.018-9.612,1.771-11.36,7.893c-1.694,5.932-5.248,14.768-16.506,22.974C98.87,420.965,97.44,446.15,97.427,446.404z"/>
			</g>
			<linearGradient id="SVGID_4_" gradientUnits="userSpaceOnUse" x1="81.854" y1="382.0098" x2="128.4497" y2="382.0098">
				<stop  offset="0" style="stop-color:#3076A1"/>
				<stop  offset="1" style="stop-color:#639C38"/>
			</linearGradient>
			<path fill="url(#SVGID_4_)" d="M120.304,320.817c-7.111-2.438-5.634,11.268-8.639,21.41c-3.005,10.142-33.43,4.424-20.659,29.819
				c12.771,25.396-16.151,8.493-7.512,30.654c8.639,22.162,0.75,45.863,10.141,39.834c9.391-6.028,5.276-33.936,15.042-37.251
				c9.766-3.316,11.36-7.185,1.69-16.199c-9.669-9.015,25.337-17.964,16.698-36.167S128.521,323.634,120.304,320.817z"/>
			<g>
				<path fill="#FFFFFF" d="M97.993,441.474c-0.894-3.794-8.532-37.181-1.406-41.217c6.282-3.557,6.126-17.392,5.146-30.456
					c-0.867-11.564,13.985-16.97,14.618-17.194l0.377,1.063c-0.147,0.052-14.674,5.343-13.871,16.048
					c1.006,13.416,1.114,27.653-5.715,31.521c-5.412,3.064-0.43,29.897,1.947,39.978L97.993,441.474z"/>
			</g>
			<linearGradient id="SVGID_5_" gradientUnits="userSpaceOnUse" x1="71.1606" y1="448.8457" x2="114.1587" y2="448.8457">
				<stop  offset="0" style="stop-color:#FF9340"/>
				<stop  offset="1" style="stop-color:#FFCE45"/>
			</linearGradient>
			<polygon fill="url(#SVGID_5_)" points="114.159,429.585 104.005,468.106 81.314,468.106 71.161,429.585 			"/>
			<linearGradient id="SVGID_6_" gradientUnits="userSpaceOnUse" x1="71.1606" y1="448.8457" x2="114.1587" y2="448.8457">
				<stop  offset="0" style="stop-color:#C97332"/>
				<stop  offset="1" style="stop-color:#FFCE45"/>
			</linearGradient>
			<path fill="url(#SVGID_6_)" d="M114.159,429.585c0,0-22.353,4.197-22.353,38.521H81.314l-10.154-38.521H114.159z"/>
		</g>
		<g>
			<polygon fill="#78C2FF" points="550.593,282.293 496.514,282.293 496.514,281.327 549.627,281.327 549.627,237.697 
				550.593,237.697 			"/>
		</g>
		<g>
			<g>
				<g>
					<path fill="#6AAFE8" d="M541.311,203.877h-25.855v-25.855h25.855V203.877z M516.316,203.015h24.132v-24.132h-24.132V203.015z"
						/>
				</g>
				<g>
					<path fill="#6AAFE8" d="M605.662,187.501h-59.181v-6.32h59.181V187.501z M547.344,186.64h57.457v-4.597h-57.457V186.64z"/>
				</g>
				<g>
					<path fill="#6AAFE8" d="M605.662,216.895h-90.207v-6.32h90.207V216.895z M516.316,216.033h88.484v-4.597h-88.484V216.033z"/>
				</g>
				<g>
					<path fill="#6AAFE8" d="M572.912,229.032h-57.457v-6.32h57.457V229.032z M516.316,228.171h55.734v-4.597h-55.734V228.171z"/>
				</g>
				<g>
					<path fill="#6AAFE8" d="M586.558,199.558h-40.076v-6.32h40.076V199.558z M547.344,198.696h38.353V194.1h-38.353V198.696z"/>
				</g>
			</g>
			<g>
				<path fill="#6AAFE8" d="M615.933,242.777H505.185v-78.501h110.748V242.777z M506.046,241.916h109.025v-76.777H506.046V241.916z"
					/>
			</g>
		</g>
		<g>
			<path fill="#78C2FF" d="M550.11,238.347c-1.955,0-3.547-1.591-3.547-3.546c0-1.956,1.592-3.547,3.547-3.547
				s3.546,1.591,3.546,3.547C553.656,236.756,552.065,238.347,550.11,238.347z M550.11,232.22c-1.424,0-2.581,1.158-2.581,2.581
				c0,1.423,1.157,2.581,2.581,2.581c1.423,0,2.58-1.158,2.58-2.581C552.69,233.377,551.533,232.22,550.11,232.22z"/>
		</g>
		<g>
			<path fill="#6AAFE8" d="M179.344,215.792h-64.604l0.112-0.575c1.038-5.322,5.733-9.184,11.166-9.184
				c0.784,0,1.566,0.082,2.329,0.242c3.366-6.397,9.905-10.354,17.157-10.354c6.179,0,12.004,2.966,15.655,7.952
				c1.332-0.405,2.714-0.61,4.118-0.61c7.03,0,12.91,5.035,13.981,11.973L179.344,215.792z M115.929,214.826h62.275
				c-1.213-6.08-6.674-10.598-12.929-10.598c-1.42,0-2.816,0.225-4.153,0.669l-0.34,0.113l-0.207-0.293
				c-3.456-4.903-9.09-7.83-15.073-7.83c-7.011,0-13.321,3.893-16.467,10.159l-0.173,0.345l-0.375-0.093
				c-0.805-0.198-1.636-0.299-2.471-0.299C121.243,206.999,117.091,210.256,115.929,214.826z"/>
		</g>
		<g>
			<linearGradient id="SVGID_7_" gradientUnits="userSpaceOnUse" x1="219.2378" y1="451.709" x2="448.4307" y2="451.709">
				<stop  offset="0" style="stop-color:#FF9F55"/>
				<stop  offset="1" style="stop-color:#FFD255"/>
			</linearGradient>
			<polygon fill="url(#SVGID_7_)" points="434.09,424.91 333.834,424.91 233.579,424.91 219.238,478.508 333.834,478.508 
				448.431,478.508 			"/>
			<path fill="#FFFFFF" d="M235.158,439.145h13.12c0.548,0,0.961,0.426,0.859,0.886l-1.27,5.707
				c-0.079,0.353-0.439,0.607-0.86,0.607h-13.344c-0.56,0-0.976-0.442-0.854-0.909l1.495-5.707
				C234.394,439.387,234.749,439.145,235.158,439.145z"/>
			<polygon fill="#FFFFFF" points="254.293,439.145 264.212,439.145 262.892,446.345 252.785,446.345 			"/>
			<polygon fill="#FFFFFF" points="269.171,439.145 279.089,439.145 278.051,446.345 267.943,446.354 			"/>
			<polygon fill="#FFFFFF" points="284.048,439.145 293.966,439.145 293.212,446.345 283.105,446.345 			"/>
			<polygon fill="#FFFFFF" points="298.925,439.145 308.844,439.145 308.372,446.345 298.265,446.345 			"/>
			<polygon fill="#FFFFFF" points="313.802,439.145 323.721,439.145 323.532,446.345 313.425,446.354 			"/>
			<polygon fill="#FFFFFF" points="432.854,439.145 417.977,439.145 419.579,446.345 434.739,446.345 			"/>
			<polygon fill="#FFFFFF" points="413.018,439.145 403.099,439.145 404.419,446.345 414.526,446.345 			"/>
			<polygon fill="#FFFFFF" points="398.14,439.145 388.223,439.145 389.26,446.345 399.367,446.354 			"/>
			<polygon fill="#FFFFFF" points="383.264,439.145 373.345,439.145 374.099,446.345 384.206,446.345 			"/>
			<polygon fill="#FFFFFF" points="368.386,439.145 358.468,439.145 358.939,446.345 369.045,446.345 			"/>
			<polygon fill="#FFFFFF" points="353.508,439.145 343.59,439.145 343.778,446.345 353.886,446.354 			"/>
			<polygon fill="#FFFFFF" points="328.68,439.145 338.598,439.145 338.763,446.345 328.68,446.345 			"/>
			<polygon fill="#FFFFFF" points="230.794,451.709 251.519,451.709 250.339,459.136 229.221,459.136 			"/>
			<polygon fill="#FFFFFF" points="436.09,451.709 410.472,451.709 411.931,459.136 438.035,459.136 			"/>
			<polygon fill="#FFFFFF" points="405.348,451.709 395.101,451.709 396.268,459.136 406.71,459.136 			"/>
			<polygon fill="#FFFFFF" points="389.978,451.709 379.729,451.709 380.605,459.136 391.047,459.136 			"/>
			<polygon fill="#FFFFFF" points="374.606,451.709 364.358,451.709 364.942,459.136 375.384,459.136 			"/>
			<polygon fill="#FFFFFF" points="359.235,451.709 348.988,451.709 349.28,459.136 359.722,459.136 			"/>
			<polygon fill="#FFFFFF" points="227.698,464.947 248.886,464.947 247.34,472.324 225.766,472.324 			"/>
			<polygon fill="#FFFFFF" points="254.183,464.947 264.777,464.947 263.521,472.324 252.734,472.324 			"/>
			<polygon fill="#FFFFFF" points="270.075,464.947 280.668,464.947 349.523,464.947 349.819,472.324 268.915,472.324 			"/>
			<polygon fill="#FFFFFF" points="354.827,464.947 365.421,464.947 366.001,472.324 355.214,472.324 			"/>
			<polygon fill="#FFFFFF" points="370.718,464.947 381.312,464.947 382.182,472.324 371.394,472.324 			"/>
			<polygon fill="#FFFFFF" points="386.609,464.947 397.203,464.947 398.362,472.324 387.576,472.324 			"/>
			<polygon fill="#FFFFFF" points="402.5,464.947 413.094,464.947 414.544,472.324 403.756,472.324 			"/>
			<polygon fill="#FFFFFF" points="418.392,464.947 439.579,464.947 441.512,472.324 419.937,472.324 			"/>
			<polygon fill="#FFFFFF" points="343.886,451.709 333.722,451.709 333.722,459.136 344.081,459.136 			"/>
			<polygon fill="#FFFFFF" points="328.515,451.709 318.268,451.709 317.976,459.136 328.417,459.136 			"/>
			<polygon fill="#FFFFFF" points="313.144,451.709 302.897,451.709 302.313,459.136 312.755,459.136 			"/>
			<polygon fill="#FFFFFF" points="297.773,451.709 287.526,451.709 286.65,459.136 297.092,459.136 			"/>
			<polygon fill="#FFFFFF" points="282.402,451.709 272.155,451.709 270.988,459.136 281.43,459.136 			"/>
			<polygon fill="#FFFFFF" points="267.032,451.709 256.784,451.709 255.325,459.136 265.767,459.136 			"/>
			<polygon fill="#FFFFFF" points="235.642,434.62 237.326,428.192 242.142,428.192 240.57,434.62 			"/>
			<polygon fill="#FFFFFF" points="246.958,428.192 256.588,428.192 255.242,434.62 245.442,434.62 			"/>
			<polygon fill="#FFFFFF" points="261.404,428.192 271.036,428.192 269.941,434.62 260.141,434.62 			"/>
			<polygon fill="#FFFFFF" points="275.851,428.192 285.482,428.192 284.641,434.62 274.841,434.62 			"/>
			<polygon fill="#FFFFFF" points="290.298,428.192 299.93,428.192 299.34,434.62 289.54,434.62 			"/>
			<polygon fill="#FFFFFF" points="304.745,428.192 314.376,428.192 314.039,434.62 304.24,434.62 			"/>
			<polygon fill="#FFFFFF" points="319.191,428.192 328.823,428.192 328.739,434.62 318.939,434.62 			"/>
			<polygon fill="#FFFFFF" points="333.639,428.192 343.27,428.192 343.438,434.62 333.639,434.62 			"/>
			<polygon fill="#FFFFFF" points="348.085,428.192 357.718,428.192 358.138,434.62 348.339,434.62 			"/>
			<polygon fill="#FFFFFF" points="362.532,428.192 372.164,428.192 372.838,434.62 363.038,434.62 			"/>
			<polygon fill="#FFFFFF" points="376.979,428.192 386.61,428.192 387.536,434.62 377.738,434.62 			"/>
			<polygon fill="#FFFFFF" points="391.427,428.192 401.058,428.192 402.236,434.62 392.437,434.62 			"/>
			<polygon fill="#FFFFFF" points="405.873,428.192 415.505,428.192 416.936,434.62 407.137,434.62 			"/>
			<polygon fill="#FFFFFF" points="420.32,428.192 429.951,428.192 431.636,434.62 421.835,434.62 			"/>
			<linearGradient id="SVGID_8_" gradientUnits="userSpaceOnUse" x1="113.0103" y1="480.0898" x2="342.2031" y2="480.0898">
				<stop  offset="0" style="stop-color:#E37E30"/>
				<stop  offset="1" style="stop-color:#E8A12E"/>
			</linearGradient>
			<rect x="219.238" y="478.508" fill="url(#SVGID_8_)" width="229.193" height="3.163"/>
		</g>
		<g>
			<rect x="318.749" y="311.393" fill="#518AFA" width="31.543" height="95.806"/>
		</g>
		<g>
			<linearGradient id="SVGID_9_" gradientUnits="userSpaceOnUse" x1="190.1187" y1="261.4717" x2="492.7066" y2="261.4717">
				<stop  offset="0" style="stop-color:#FF9F55"/>
				<stop  offset="1" style="stop-color:#FFD255"/>
			</linearGradient>
			<path fill="url(#SVGID_9_)" d="M207.922,357.543h253.197c5.294,0,9.587-4.292,9.587-9.587V174.987
				c0-5.295-4.293-9.587-9.587-9.587H207.922c-5.295,0-9.587,4.292-9.587,9.587v172.969
				C198.335,353.251,202.627,357.543,207.922,357.543z"/>
		</g>
		<g>
			<linearGradient id="SVGID_10_" gradientUnits="userSpaceOnUse" x1="207.9629" y1="248.7148" x2="460.5947" y2="248.7148">
				<stop  offset="0" style="stop-color:#404B61"/>
				<stop  offset="0.486" style="stop-color:#3C4860"/>
				<stop  offset="1" style="stop-color:#2F3E5C"/>
			</linearGradient>
			<rect x="207.963" y="174.811" fill="url(#SVGID_10_)" width="252.632" height="147.807"/>
		</g>
		<g>
			<circle fill="#696969" cx="334.521" cy="341.21" r="8.786"/>
		</g>
		<linearGradient id="SVGID_11_" gradientUnits="userSpaceOnUse" x1="263.5674" y1="407.1982" x2="405.4727" y2="407.1982">
			<stop  offset="0" style="stop-color:#FF9F55"/>
			<stop  offset="1" style="stop-color:#FFD255"/>
		</linearGradient>
		<rect x="263.567" y="403.582" fill="url(#SVGID_11_)" width="141.905" height="7.232"/>
		<g>
			<path fill="#6AAFE8" d="M417.977,101.211l-0.22-0.113c-22.926-11.705-19.847-34.374-19.813-34.601l0.062-0.413h0.416
				c14.576,0,19.157-4.698,19.202-4.745l0.355-0.378l0.353,0.379c0.043,0.046,4.625,4.744,19.2,4.744h0.417l0.062,0.413
				c0.034,0.228,3.112,22.896-19.814,34.601L417.977,101.211z M398.853,67.049c-0.289,3.071-1.255,22.53,19.124,33.077
				c20.379-10.546,19.413-30.006,19.124-33.077c-12.657-0.079-17.807-3.604-19.124-4.723C416.66,63.445,411.51,66.97,398.853,67.049
				z"/>
		</g>
		<g>
			<rect x="222.483" y="186.128" fill="#E0E0E0" width="28.294" height="2.897"/>
		</g>
		<g>
			<rect x="258.696" y="207.943" fill="#E0E0E0" width="20.429" height="2.897"/>
		</g>
		<g>
			<rect x="282.307" y="207.943" fill="#1487E3" width="13.556" height="2.897"/>
		</g>
		<g>
			<rect x="310.003" y="295.523" fill="#1487E3" width="13.556" height="2.897"/>
		</g>
		<g>
			<rect x="222.804" y="262.802" fill="#1487E3" width="13.556" height="2.896"/>
		</g>
		<g>
			<rect x="298.542" y="207.943" fill="#E0E0E0" width="32.73" height="2.897"/>
		</g>
		<g>
			<rect x="222.804" y="251.814" fill="#E0E0E0" width="21.032" height="2.896"/>
		</g>
		<g>
			<rect x="279.317" y="273.709" fill="#E0E0E0" width="21.032" height="2.897"/>
		</g>
		<g>
			<rect x="357.877" y="295.523" fill="#E0E0E0" width="21.032" height="2.897"/>
		</g>
		<g>
			<rect x="252.122" y="273.709" fill="#E0E0E0" width="12.839" height="2.897"/>
		</g>
		<g>
			<rect x="222.804" y="273.709" fill="#1487E3" width="25.438" height="2.897"/>
		</g>
		<g>
			<rect x="222.804" y="284.616" fill="#E0E0E0" width="14.03" height="2.897"/>
		</g>
		<g>
			<rect x="256.282" y="186.128" fill="#78C2FF" width="20.086" height="2.897"/>
		</g>
		<g>
			<rect x="256.282" y="218.85" fill="#1487E3" width="20.086" height="2.897"/>
		</g>
		<g>
			<rect x="246.239" y="229.758" fill="#E0E0E0" width="8.582" height="2.897"/>
		</g>
		<g>
			<rect x="237.657" y="240.826" fill="#78C2FF" width="19.276" height="2.897"/>
		</g>
		<g>
			<rect x="259.847" y="240.826" fill="#1487E3" width="26.612" height="2.897"/>
		</g>
		<g>
			<rect x="344.123" y="284.616" fill="#1487E3" width="26.611" height="2.897"/>
		</g>
		<g>
			<rect x="222.804" y="229.838" fill="#1487E3" width="20.086" height="2.897"/>
		</g>
		<g>
			<rect x="222.804" y="240.826" fill="#1487E3" width="11.918" height="2.897"/>
		</g>
		<g>
			<rect x="258.867" y="229.838" fill="#FF8761" width="11.244" height="2.897"/>
		</g>
		<g>
			<rect x="223.141" y="295.523" fill="#FF8761" width="11.244" height="2.897"/>
		</g>
		<g>
			<rect x="222.724" y="207.943" fill="#78C2FF" width="20.086" height="2.897"/>
		</g>
		<g>
			<rect x="240.487" y="262.802" fill="#78C2FF" width="20.086" height="2.896"/>
		</g>
		<g>
			<rect x="240.734" y="284.616" fill="#78C2FF" width="20.086" height="2.897"/>
		</g>
		<g>
			<rect x="276.416" y="284.616" fill="#78C2FF" width="20.086" height="2.897"/>
		</g>
		<g>
			<rect x="222.724" y="218.85" fill="#78C2FF" width="28.633" height="2.897"/>
		</g>
		<g>
			<rect x="356.897" y="186.128" fill="#78C2FF" width="20.086" height="2.897"/>
		</g>
		<g>
			<rect x="285.343" y="295.523" fill="#78C2FF" width="20.086" height="2.897"/>
		</g>
		<g>
			<rect x="383.232" y="186.128" fill="#78C2FF" width="13.445" height="2.897"/>
		</g>
		<g>
			<rect x="428.723" y="197.036" fill="#78C2FF" width="13.445" height="2.896"/>
		</g>
		<g>
			<rect x="281.775" y="186.128" fill="#1487E3" width="25.59" height="2.897"/>
		</g>
		<g>
			<rect x="383.232" y="295.523" fill="#1487E3" width="25.591" height="2.897"/>
		</g>
		<g>
			<rect x="238.63" y="295.523" fill="#1487E3" width="25.59" height="2.897"/>
		</g>
		<g>
			<rect x="381.484" y="197.036" fill="#1487E3" width="25.59" height="2.896"/>
		</g>
		<g>
			<rect x="350.099" y="207.943" fill="#1487E3" width="25.591" height="2.897"/>
		</g>
		<g>
			<rect x="327.862" y="295.523" fill="#1487E3" width="25.59" height="2.897"/>
		</g>
		<g>
			<rect x="323.924" y="273.709" fill="#1487E3" width="25.591" height="2.897"/>
		</g>
		<g>
			<rect x="268.98" y="273.709" fill="#FF8761" width="5.516" height="2.897"/>
		</g>
		<g>
			
				<rect x="382.716" y="214.644" transform="matrix(0.9952 0.0979 -0.0979 0.9952 23.0608 -37.7627)" fill="#78C2FF" width="27.18" height="2.897"/>
		</g>
		<g>
			<rect x="326.293" y="186.128" fill="#FF8761" width="25.59" height="2.897"/>
		</g>
		<g>
			<polygon fill="#1487E3" points="330.077,232.25 290.442,214.577 291.626,211.933 331.26,229.605 			"/>
		</g>
		<g>
			<rect x="285.343" y="262.963" fill="#FF8761" width="15.005" height="2.896"/>
		</g>
		<g>
			<rect x="312.098" y="186.128" fill="#E0E0E0" width="9.367" height="2.897"/>
		</g>
		<g>
			<rect x="281.775" y="218.85" fill="#E0E0E0" width="9.367" height="2.897"/>
		</g>
		<g>
			<rect x="413.246" y="197.036" fill="#E0E0E0" width="9.367" height="2.896"/>
		</g>
		<g>
			<rect x="222.483" y="197.036" fill="#1487E3" width="14.654" height="2.896"/>
		</g>
		<g>
			<rect x="261.583" y="251.895" fill="#1487E3" width="11.57" height="2.896"/>
		</g>
		<g>
			<rect x="240.734" y="197.036" fill="#1487E3" width="4.732" height="2.896"/>
		</g>
		<g>
			<rect x="337.873" y="197.036" fill="#E0E0E0" width="39.11" height="2.896"/>
		</g>
		<g>
			<rect x="300.349" y="284.616" fill="#E0E0E0" width="39.109" height="2.897"/>
		</g>
		<g>
			<rect x="248.942" y="197.036" fill="#FF8761" width="4.829" height="2.896"/>
		</g>
		<g>
			<rect x="321.464" y="197.036" fill="#1487E3" width="12.796" height="2.896"/>
		</g>
		<g>
			<rect x="334.261" y="207.943" fill="#FF8761" width="12.795" height="2.897"/>
		</g>
		<g>
			<rect x="305.7" y="273.709" fill="#FF8761" width="12.795" height="2.897"/>
		</g>
		<g>
			<rect x="268.465" y="295.523" fill="#FF8761" width="12.795" height="2.897"/>
		</g>
		<g>
			<rect x="290.853" y="197.036" fill="#1487E3" width="27.225" height="2.896"/>
		</g>
		<g>
			<rect x="354.198" y="273.709" fill="#1487E3" width="27.225" height="2.897"/>
		</g>
		<g>
			<rect x="265.512" y="262.963" fill="#1487E3" width="15.906" height="2.896"/>
		</g>
		<g>
			<rect x="264.489" y="284.616" fill="#1487E3" width="7.953" height="2.897"/>
		</g>
		<g>
			<rect x="277.623" y="197.036" fill="#78C2FF" width="9.367" height="2.896"/>
		</g>
		<g>
			<rect x="374.226" y="284.616" fill="#FF8761" width="9.366" height="2.897"/>
		</g>
		<g>
			<rect x="246.094" y="207.943" fill="#FF8761" width="9.367" height="2.897"/>
		</g>
		<g>
			<rect x="247.961" y="251.895" fill="#FF8761" width="9.367" height="2.896"/>
		</g>
		<g>
			<rect x="257.73" y="197.036" fill="#1487E3" width="16.32" height="2.896"/>
		</g>
		<g>
			<polygon fill="#78C2FF" points="222.483,263.594 151.397,263.594 151.397,211.363 152.363,211.363 152.363,262.629 
				222.483,262.629 			"/>
		</g>
		<g>
			<polygon fill="#78C2FF" points="366.484,209.391 365.519,209.391 365.519,140.261 417.494,140.261 417.494,94.967 418.46,94.967 
				418.46,141.227 366.484,141.227 			"/>
		</g>
		<g>
			<g>
				<g>
					<path fill="#323657" d="M218.897,306.826c-0.003-0.002-0.007-0.003-0.013-0.002
						C218.937,306.848,218.944,306.85,218.897,306.826z"/>
				</g>
			</g>
		</g>
		<g>
			<polygon fill="#6AAFE8" points="449.933,113.168 441.646,113.168 441.646,112.203 448.968,112.203 448.968,104.889 
				449.933,104.889 			"/>
		</g>
		<g>
			<polygon fill="#6AAFE8" points="394.213,113.168 385.927,113.168 385.927,104.889 386.892,104.889 386.892,112.203 
				394.213,112.203 			"/>
		</g>
		<g>
			<polygon fill="#6AAFE8" points="386.896,57.452 385.93,57.452 385.93,49.165 394.21,49.165 394.21,50.131 386.896,50.131 			"/>
		</g>
		<g>
			<polygon fill="#6AAFE8" points="449.933,57.448 448.968,57.448 448.968,50.135 441.646,50.135 441.646,49.168 449.933,49.168 			
				"/>
		</g>
		<g>
			<rect x="448.968" y="69.822" fill="#6AAFE8" width="0.965" height="22.693"/>
		</g>
		<g>
			<rect x="385.927" y="69.822" fill="#6AAFE8" width="0.965" height="22.693"/>
		</g>
		<g>
			<path fill="#78C2FF" d="M151.88,211.846c-1.956,0-3.546-1.591-3.546-3.546c0-1.955,1.591-3.547,3.546-3.547
				s3.546,1.592,3.546,3.547C155.426,210.255,153.835,211.846,151.88,211.846z M151.88,205.719c-1.423,0-2.581,1.158-2.581,2.581
				c0,1.423,1.158,2.581,2.581,2.581c1.423,0,2.581-1.157,2.581-2.581C154.46,206.876,153.303,205.719,151.88,205.719z"/>
		</g>
		<g>
			<path fill="#78C2FF" d="M417.977,95.45c-1.956,0-3.547-1.591-3.547-3.546c0-1.956,1.591-3.547,3.547-3.547
				c1.955,0,3.546,1.591,3.546,3.547C421.522,93.858,419.932,95.45,417.977,95.45z M417.977,89.323
				c-1.424,0-2.581,1.157-2.581,2.581c0,1.423,1.157,2.581,2.581,2.581c1.423,0,2.58-1.158,2.58-2.581
				C420.557,90.48,419.399,89.323,417.977,89.323z"/>
		</g>
		<g>
			<path fill="#A1D4FF" d="M176.773,78.304h-24.346V53.958h24.346V78.304z M153.394,77.338h22.414V54.925h-22.414V77.338z"/>
		</g>
		<g>
			<rect x="164.118" y="60.595" fill="#A1D4FF" width="0.966" height="11.347"/>
		</g>
		<g>
			<rect x="158.927" y="65.785" fill="#A1D4FF" width="11.347" height="0.966"/>
		</g>
		<g>
			<path fill="#A1D4FF" d="M547.763,107.671h-34.798V82.83h34.798V107.671z M513.931,106.705h32.866v-22.91h-32.866V106.705z"/>
		</g>
		<g>
			<polygon fill="#A1D4FF" points="530.363,97.875 513.14,83.685 513.754,82.94 530.363,96.625 546.973,82.94 547.586,83.685 			"/>
		</g>
		<g>
			
				<rect x="531.96" y="100.121" transform="matrix(0.6882 0.7255 -0.7255 0.6882 241.6921 -361.1684)" fill="#A1D4FF" width="18.149" height="0.966"/>
		</g>
		<g>
			
				<rect x="519.209" y="91.53" transform="matrix(0.7258 0.6879 -0.6879 0.7258 211.7017 -329.9105)" fill="#A1D4FF" width="0.966" height="18.149"/>
		</g>
		<g>
			<path fill="#A1D4FF" d="M122.153,280.781l-0.362-0.946c-0.325-0.043-0.644-0.116-0.953-0.219l-0.739,0.693l-2.144-1.525
				l0.413-0.926c-0.198-0.258-0.372-0.535-0.518-0.828l-1.013-0.032l-0.438-2.596l0.947-0.361c0.042-0.324,0.115-0.644,0.218-0.952
				l-0.693-0.739l1.526-2.144l0.924,0.413c0.259-0.199,0.536-0.372,0.828-0.519l0.033-1.013l2.595-0.438l0.362,0.946
				c0.325,0.043,0.644,0.115,0.953,0.218l0.738-0.692l2.144,1.525l-0.413,0.925c0.198,0.259,0.372,0.536,0.519,0.829l1.012,0.031
				l0.438,2.595l-0.947,0.363c-0.042,0.324-0.116,0.643-0.219,0.952l0.693,0.738l-1.525,2.145l-0.925-0.413
				c-0.258,0.199-0.536,0.372-0.828,0.519l-0.033,1.013L122.153,280.781z M120.668,278.781l0.212,0.081
				c0.384,0.147,0.788,0.24,1.201,0.275l0.226,0.021l0.31,0.811l1.425-0.241l0.028-0.867l0.208-0.093
				c0.378-0.168,0.729-0.389,1.043-0.653l0.173-0.146l0.792,0.354l0.838-1.179l-0.594-0.633l0.081-0.212
				c0.147-0.384,0.24-0.788,0.275-1.199l0.02-0.227l0.811-0.311l-0.24-1.425l-0.869-0.027l-0.092-0.207
				c-0.169-0.378-0.389-0.73-0.653-1.044l-0.146-0.174l0.353-0.793l-1.178-0.837l-0.632,0.594l-0.212-0.082
				c-0.385-0.146-0.788-0.239-1.2-0.274l-0.226-0.021l-0.311-0.811l-1.426,0.24l-0.028,0.867l-0.207,0.094
				c-0.378,0.168-0.729,0.388-1.043,0.652l-0.174,0.146l-0.793-0.354l-0.838,1.178l0.594,0.633l-0.081,0.211
				c-0.147,0.385-0.24,0.788-0.275,1.2l-0.02,0.226l-0.812,0.312l0.24,1.426l0.868,0.026l0.093,0.207
				c0.168,0.379,0.388,0.73,0.653,1.044l0.146,0.173l-0.354,0.793l1.178,0.838L120.668,278.781z M122.459,277.578
				c-0.589,0-1.164-0.184-1.653-0.531h0c-1.286-0.914-1.587-2.705-0.672-3.99c0.915-1.285,2.705-1.587,3.99-0.672
				c1.286,0.914,1.587,2.705,0.673,3.99c-0.443,0.622-1.103,1.035-1.856,1.162C122.78,277.564,122.619,277.578,122.459,277.578z
				 M122.468,272.579c-0.669,0-1.328,0.313-1.744,0.897c-0.331,0.465-0.461,1.031-0.366,1.594c0.095,0.563,0.403,1.056,0.868,1.387
				h0c0.465,0.33,1.032,0.461,1.594,0.366c0.563-0.096,1.056-0.403,1.386-0.868c0.684-0.961,0.458-2.297-0.502-2.98
				C123.33,272.707,122.897,272.579,122.468,272.579z"/>
		</g>
		<g>
			<path fill="#A1D4FF" d="M102.049,283.809l-0.809-2.112c-0.867-0.098-1.718-0.292-2.538-0.582l-1.647,1.547l-4.476-3.185
				l0.922-2.064c-0.542-0.679-1.005-1.419-1.381-2.206l-2.261-0.071l-0.913-5.418l2.112-0.808c0.097-0.867,0.292-1.718,0.582-2.537
				l-1.547-1.648l3.185-4.476l2.064,0.922c0.679-0.542,1.419-1.005,2.207-1.381l0.072-2.261l5.417-0.913l0.808,2.112
				c0.867,0.098,1.718,0.292,2.537,0.582l1.648-1.547l4.476,3.185l-0.921,2.064c0.542,0.679,1.004,1.42,1.381,2.206l2.26,0.072
				l0.913,5.417l-2.112,0.808c-0.098,0.868-0.292,1.718-0.582,2.538l1.547,1.647l-3.185,4.476l-2.064-0.922
				c-0.679,0.542-1.419,1.005-2.206,1.382l-0.072,2.26L102.049,283.809z M98.48,280l0.282,0.107c0.917,0.352,1.88,0.572,2.863,0.656
				l0.302,0.026l0.74,1.935l3.857-0.65l0.065-2.07l0.277-0.123c0.901-0.402,1.739-0.926,2.49-1.558l0.231-0.195l1.89,0.845
				l2.268-3.188l-1.416-1.509l0.108-0.282c0.351-0.916,0.572-1.88,0.656-2.864l0.025-0.301l1.935-0.74l-0.65-3.857l-2.07-0.065
				l-0.123-0.277c-0.402-0.901-0.926-1.739-1.558-2.49l-0.195-0.231l0.844-1.89l-3.188-2.269l-1.509,1.416l-0.282-0.107
				c-0.917-0.352-1.88-0.572-2.864-0.656l-0.302-0.026l-0.74-1.935l-3.857,0.65l-0.066,2.07l-0.276,0.123
				c-0.902,0.402-1.74,0.926-2.491,1.559l-0.231,0.194l-1.89-0.844l-2.268,3.188l1.417,1.509l-0.108,0.283
				c-0.352,0.916-0.572,1.88-0.656,2.863l-0.026,0.301l-1.935,0.74l0.65,3.857l2.071,0.066l0.123,0.276
				c0.402,0.901,0.927,1.74,1.559,2.491l0.195,0.23l-0.844,1.89l3.188,2.269L98.48,280z M102.535,276.458
				c-1.253,0-2.518-0.375-3.614-1.156c-1.36-0.967-2.261-2.406-2.539-4.052c-0.277-1.646,0.103-3.301,1.071-4.66
				c1.998-2.807,5.906-3.467,8.713-1.468c2.807,1.997,3.466,5.905,1.468,8.713C106.417,275.545,104.49,276.458,102.535,276.458z
				 M102.554,264.929c-0.295,0-0.592,0.024-0.889,0.074c-1.392,0.234-2.608,0.997-3.426,2.146s-1.139,2.549-0.905,3.94
				c0.234,1.391,0.997,2.608,2.146,3.426c2.374,1.688,5.678,1.132,7.366-1.241c0.818-1.149,1.14-2.548,0.905-3.939
				s-0.997-2.608-2.146-3.427C104.702,265.265,103.642,264.929,102.554,264.929z"/>
		</g>
		<g>
			<g>
				<g>
					<path fill="#78C2FF" d="M308.688,125.205c-9.934,0-18.017-8.083-18.017-18.017h0.966c0,9.402,7.649,17.051,17.051,17.051
						s17.051-7.649,17.051-17.051c0-9.402-7.649-17.05-17.051-17.05v-0.966c9.934,0,18.017,8.083,18.017,18.017
						C326.705,117.123,318.622,125.205,308.688,125.205z M308.688,122.7c-8.553,0-15.512-6.959-15.512-15.512
						c0-8.553,6.959-15.512,15.512-15.512c8.553,0,15.512,6.959,15.512,15.512h-0.966c0-8.021-6.525-14.546-14.546-14.546
						s-14.546,6.525-14.546,14.546c0,8.021,6.525,14.546,14.546,14.546V122.7z"/>
				</g>
			</g>
		</g>
		<g>
			<polygon fill="#78C2FF" points="306.48,113.157 299.982,106.659 300.665,105.976 306.48,111.791 316.71,101.562 317.393,102.244 
							"/>
		</g>
		<g>
			<g>
				<g>
					<g>
						<g>
							<g>
								<path fill="#5C544D" d="M457.615,357.175c0,0,0.88,3.456,1,3.977s5.539-0.912,5.539-0.912l-0.005-4.228
									C464.149,356.012,458.252,356.605,457.615,357.175z"/>
							</g>
						</g>
					</g>
				</g>
			</g>
			<g>
				<g>
					<g>
						<g>
							<g>
								<path fill="#3C4145" d="M458.508,360.711c0,0-1.517,2.304-3.105,3.408c-1.588,1.104-7.719,2.532-8.614,3.595
									c-0.646,0.767-1.545,3.669,8.293,2.344c6.988-0.941,10.438-0.704,11.065-1.922s-1.993-8.274-1.993-8.274
									S462.658,360.675,458.508,360.711z"/>
							</g>
						</g>
					</g>
				</g>
			</g>
			<g>
				<g>
					<g>
						<g>
							<g>
								<g>
									<polygon fill="#F0C141" points="456.467,455.536 436.832,255.469 439.307,255.229 458.942,455.297 									"/>
								</g>
							</g>
						</g>
					</g>
				</g>
				<g>
					<g>
						<g>
							<g>
								<g>
									
										<rect x="387.404" y="350.254" transform="matrix(0.0977 0.9952 -0.9952 0.0977 790.0801 -168.4189)" fill="#F0C141" width="201.029" height="2.487"/>
								</g>
							</g>
						</g>
					</g>
				</g>
				<g>
					<g>
						<g>
							<g>
								<g>
									<g>
										
											<rect x="457.294" y="237.905" transform="matrix(0.0966 0.9953 -0.9953 0.0966 671.0376 -223.309)" fill="#F0C141" width="2.486" height="40.218"/>
									</g>
								</g>
							</g>
						</g>
					</g>
					<g>
						<g>
							<g>
								<g>
									<g>
										
											<rect x="459.1" y="256.519" transform="matrix(0.0962 0.9954 -0.9954 0.0962 691.423 -208.1829)" fill="#F0C141" width="2.488" height="40.218"/>
									</g>
								</g>
							</g>
						</g>
					</g>
					<g>
						<g>
							<g>
								<g>
									<g>
										
											<rect x="460.907" y="275.132" transform="matrix(0.0966 0.9953 -0.9953 0.0966 711.3551 -193.274)" fill="#F0C141" width="2.486" height="40.219"/>
									</g>
								</g>
							</g>
						</g>
					</g>
					<g>
						<g>
							<g>
								<g>
									<g>
										
											<rect x="462.714" y="293.747" transform="matrix(0.0962 0.9954 -0.9954 0.0962 731.7072 -178.1515)" fill="#F0C141" width="2.486" height="40.218"/>
									</g>
								</g>
							</g>
						</g>
					</g>
					<g>
						<g>
							<g>
								<g>
									<g>
										
											<rect x="464.521" y="312.362" transform="matrix(0.097 0.9953 -0.9953 0.097 751.5001 -163.3396)" fill="#F0C141" width="2.487" height="40.219"/>
									</g>
								</g>
							</g>
						</g>
					</g>
					<g>
						<g>
							<g>
								<g>
									<g>
										
											<rect x="466.327" y="330.976" transform="matrix(0.0966 0.9953 -0.9953 0.0966 771.8329 -148.2207)" fill="#F0C141" width="2.486" height="40.218"/>
									</g>
								</g>
							</g>
						</g>
					</g>
					<g>
						<g>
							<g>
								<g>
									<g>
										
											<rect x="468.133" y="349.59" transform="matrix(0.0966 0.9953 -0.9953 0.0966 791.9926 -133.2029)" fill="#F0C141" width="2.486" height="40.218"/>
									</g>
								</g>
							</g>
						</g>
					</g>
					<g>
						<g>
							<g>
								<g>
									<g>
										
											<rect x="469.939" y="368.205" transform="matrix(0.0966 0.9953 -0.9953 0.0966 812.1715 -118.172)" fill="#F0C141" width="2.487" height="40.218"/>
									</g>
								</g>
							</g>
						</g>
					</g>
					<g>
						<g>
							<g>
								<g>
									<g>
										
											<rect x="471.746" y="386.818" transform="matrix(0.0966 0.9953 -0.9953 0.0966 832.3101 -103.1679)" fill="#F0C141" width="2.486" height="40.219"/>
									</g>
								</g>
							</g>
						</g>
					</g>
				</g>
				<g>
					<g>
						<g>
							<g>
								<g>
									<g>
										
											<rect x="473.553" y="405.434" transform="matrix(0.097 0.9953 -0.9953 0.097 852.2695 -88.2971)" fill="#F0C141" width="2.486" height="40.218"/>
									</g>
								</g>
							</g>
						</g>
					</g>
					<g>
						<g>
							<g>
								<g>
									<g>
										
											<rect x="475.359" y="424.048" transform="matrix(0.0966 0.9953 -0.9953 0.0966 872.6492 -73.1171)" fill="#F0C141" width="2.487" height="40.219"/>
									</g>
								</g>
							</g>
						</g>
					</g>
				</g>
			</g>
			<g>
				<g>
					<g>
						<g>
							<g>
								<path fill="#3C4145" d="M450.932,284.41c0,0-3.943,14.643-4.983,19.877c-0.905,4.561-2.728,16.706-2.986,19.594
									s11.64,30.84,12.878,35.889l10.841-1.74c0,0-11.438-29.093-8.454-35.557c4.438-9.615,5.016-9.325,8.511-17.245
									c3.495-7.921,11.499-8.108,13.647-22.804C480.385,282.424,453.841,279.75,450.932,284.41z"/>
							</g>
						</g>
					</g>
				</g>
			</g>
			<g>
				<g>
					<g>
						<g>
							<g>
								<path fill="#EEA886" d="M470.208,213.268c0,0-7.198-2.688-10.518,2.791c-3.318,5.479-2.999,16.45,0.63,17.798
									c3.628,1.349,9.079,0.644,10.937-2.785c1.858-3.428,3.534-8.385,3.454-11.698
									C474.63,216.062,472.099,214.225,470.208,213.268z"/>
							</g>
						</g>
					</g>
				</g>
			</g>
			<g>
				<g>
					<g>
						<g>
							<g>
								<path fill="#EEA886" d="M461.528,233.521c0,0,0.291,1.888-0.189,2.817c-0.481,0.929,9.054,0.954,9.054,0.954
									s0.774-5.056,2.242-9.328C474.102,223.692,461.528,233.521,461.528,233.521z"/>
							</g>
						</g>
					</g>
				</g>
			</g>
			<g>
				<g>
					<g>
						<g>
							<g>
								<path fill="#3A3F47" d="M472.635,227.964c0,0-0.658,1.085-3.345,0.665c-2.687-0.422-5.964-3.995-7.085-4.388
									s-1.132-1.051-1.132-1.051l-0.703,1.026l-1.19,0.075c0,0,1.086-3.197-0.553-4.5c-1.64-1.304,1.701-10.348,10.316-7.336
									c0,0,6.616,1.824,6.376,5.587C475.078,221.803,474.115,226.089,472.635,227.964z"/>
							</g>
						</g>
					</g>
				</g>
			</g>
			<g>
				<g>
					<g>
						<g>
							<g>
								<path fill="#EEA886" d="M461.251,221.821c0.15-0.631,1.756-2.435,2.37-0.504c0.615,1.931-0.929,4.529-1.789,4.307
									C460.972,225.401,460.869,223.421,461.251,221.821z"/>
							</g>
						</g>
					</g>
				</g>
			</g>
			<g>
				<g>
					<g>
						<g>
							<path fill="#518AFA" d="M488.706,261.044c-0.079,0.944-1.157,1.966-1.892,2.471c-0.472,0.323-1.036,0.519-1.642,0.539
								l-0.428,0.015h-0.001l-7.48,0.255c0,0-5.561-17.974,4.871-24.828C482.457,239.527,489.431,252.381,488.706,261.044z"/>
						</g>
					</g>
				</g>
			</g>
			<g>
				<g>
					<g>
						<g>
							<g>
								<path fill="#3C4145" d="M466.146,368.136c-0.629,1.219-4.077,0.981-11.066,1.921c-1.91,0.258-3.415,0.356-4.596,0.34
									l-0.407-4.204c2.044-0.711,4.421-1.444,5.325-2.073c1.589-1.104,3.105-3.408,3.105-3.408c4.15-0.035,5.646-0.85,5.646-0.85
									S466.774,366.918,466.146,368.136z"/>
							</g>
						</g>
					</g>
				</g>
			</g>
			<g>
				<g>
					<g>
						<g>
							<path fill="#FFD255" d="M461.523,235.79c0,0,5.869-1.366,9.178-0.249l0.5,0.462c0,0,1.005,1.928-2.779,2.094
								C464.636,238.262,458.686,238.538,461.523,235.79z"/>
						</g>
					</g>
				</g>
			</g>
			<g>
				<g>
					<g>
						<g>
							<g>
								<path fill="#5C544D" d="M484.461,373.338c0,0,0.88,3.455,1,3.977c0.12,0.52,5.538-0.913,5.538-0.913l-0.005-4.228
									C490.994,372.174,485.098,372.769,484.461,373.338z"/>
							</g>
						</g>
					</g>
				</g>
			</g>
			<g>
				<g>
					<g>
						<g>
							<g>
								<path fill="#3C4145" d="M480.385,282.424c0,0,1.976,8.15,2.561,16.309c0.541,7.541,1.525,15.812,2.307,23.698
									c0.872,8.791,3.36,23.004,3.49,27.706c0.13,4.703,4.088,25.257,4.088,25.257l-10.125,1.163c0,0-6.579-36.321-8.133-40.034
									c-1.554-3.712-9.259-30.181-9.518-33.151C464.795,300.401,480.385,282.424,480.385,282.424z"/>
							</g>
						</g>
					</g>
				</g>
			</g>
			<g>
				<g>
					<g>
						<g>
							<g>
								<path fill="#3C4145" d="M485.354,376.874c0,0-1.518,2.303-3.105,3.407c-1.589,1.104-7.72,2.533-8.615,3.595
									c-0.646,0.767-1.545,3.669,8.293,2.344c6.988-0.941,10.438-0.703,11.065-1.922c0.628-1.218-1.993-8.274-1.993-8.274
									S489.504,376.837,485.354,376.874z"/>
							</g>
						</g>
					</g>
				</g>
			</g>
			<g>
				<g>
					<g>
						<g>
							<path fill="#518AFA" d="M448.883,302.699c-0.862-0.123,2.141-25.831,1.911-27.443c-0.153-1.075-0.129-9.43-0.066-14.638
								l-0.939-5.271c-0.523-0.381-1.225-0.821-2.063-1.305c-1.306-0.754-2.943-1.615-4.763-2.524
								c0.211-1.245,0.358-2.225,0.415-2.798c0.454-4.63,3.563-7.083,5.326-8.116c0.72-0.421,1.215-0.605,1.215-0.605
								c0.67-0.285,1.328-0.56,1.966-0.822c4.247-1.748,9.64-3.387,9.64-3.387h8.664c0,0,6.596,1.318,10.527,2.926
								c0.504,0.207,0.976,0.47,1.42,0.779l-1.178,24.701c-0.001,0.006-0.001,0.011-0.002,0.017
								c-0.001,0.008-0.003,0.019-0.005,0.031c-0.53,3.477-1.088,7.576-1.274,10.449c-0.076,1.174,1.266,7.476,1.967,13.26
								l2.45,13.842C484.093,301.795,482.677,307.531,448.883,302.699z"/>
						</g>
					</g>
				</g>
			</g>
			<g>
				<g>
					<g>
						<g>
							<g>
								<path fill="#EEA886" d="M404.647,222.586c0,0,0.512,0.634,0.87,0.802c0,0,0.677,0.255,1.146,0.466
									c0.148,0.067,0.276,0.129,0.355,0.178c0.329,0.203,0.989,0.748,1.916,1.014c0.925,0.267,5.111,1.22,5.111,1.22l0.973-2.483
									l0.698-2.006c0,0-3.874-5.02-4.708-5.367c-0.082-0.034-0.164-0.064-0.243-0.086c-0.734-0.226-1.376-0.086-1.775-0.161
									c-0.146-0.027-1.622-0.192-1.941,0.115c-0.444,0.427-0.578,0.903-0.502,1.318c0,0-0.832,0.875-0.892,1.686
									c0,0-0.795,0.782-0.582,1.812C405.074,221.093,404.358,221.977,404.647,222.586z"/>
							</g>
						</g>
					</g>
				</g>
			</g>
			<g>
				<g>
					<g>
						<g>
							<g>
								<path fill="#518AFA" d="M449.51,255.15c-0.967-0.623-2.219-1.466-6.548-3.632c-8.061-4.033-18.013-11.344-19.905-12.399
									c-2.909-1.624-12.102-12.854-12.102-12.854c0.475-1.691,4.832-5.086,4.832-5.086s13.935,13.198,16.98,14.823
									c2.618,1.396,15.553,2.808,19.116,3.174c0.579,0.06,0.91,0.092,0.91,0.092C456.516,244.344,451.587,256.488,449.51,255.15z"
									/>
							</g>
						</g>
					</g>
				</g>
			</g>
		</g>
		<g>
			<g>
				<path fill="#6A75BA" d="M186.11,159.36c0,0-2.472-4.538-3.878-6.171c-1.407-1.633-6.079-2.858-5.444-4.944
					c0.635-2.087,6.895-1.18,8.619,0.862c1.724,2.042,6.986,2.767,7.167,3.628c0.182,0.862-1.827,5.58-2.955,6.351
					C188.492,159.858,186.11,159.36,186.11,159.36z"/>
				<path fill="#545D94" d="M175.602,163.204c0,0-4.027-3.193-5.966-4.134c-1.939-0.94-6.714-0.209-6.959-2.376
					c-0.246-2.167,5.86-3.821,8.252-2.632c2.393,1.189,7.51-0.234,8.02,0.485c0.509,0.719,0.539,5.846-0.19,7.002
					C178.029,162.704,175.602,163.204,175.602,163.204z"/>
				<path fill="#EEA886" d="M184.545,171.516c0,0,1.758-12.022,1.678-14.108c-0.022-0.596,3.618-0.375,3.448,0.771
					c-0.371,2.494,1.31,12.157,1.018,13.926C190.397,173.875,184.396,172.63,184.545,171.516z"/>
				<path fill="#EEA886" d="M179.037,174.971c0,0-3.294-11.673-4.062-13.614c-0.342-0.864,3.015-2.202,3.47-0.661
					c0.714,2.418,6.03,10.638,6.464,12.377C185.344,174.813,179.341,176.053,179.037,174.971z"/>
				<path fill="#207CD6" d="M181.324,183.083c0,0-3.538-11.93-4.083-13.201l5.58-3.448c0,0,2.585,7.621,2.949,9.526
					C186.133,177.866,181.324,183.083,181.324,183.083z"/>
				<path fill="#2E334D" d="M280.09,151.562c0,0-5.388,1.362-7.952,5.437c-2.564,4.075-4.779,8.768-9.596,10.896
					c-4.817,2.129-4.848,7.615-4.473,8.461c0.375,0.847,15.173,17.481,18.402,18.124c3.229,0.642,9.274,0.195,8.627-4.079
					c-0.647-4.274-6.982-13.469-3.426-18.107c3.556-4.639,4.453-8.912,4.453-8.912L280.09,151.562z"/>
				<path fill="#EEA886" d="M279.151,171.456c0,0-0.158-0.052-0.421-0.077c-0.306-0.028-0.753-0.02-1.261,0.151
					c-0.126,0.042-0.295,0.128-0.493,0.245c-1.28,0.755-4.31,2.803-4.72,2.852c-0.473,0.056-0.073-7.011-0.073-7.011
					s1.613-2.854,1.816-4.733C274.202,161.004,279.151,171.456,279.151,171.456z"/>
				<path fill="#207CD6" d="M241.249,178.842c0,0-5.92-4.15-12.86-2.857c-6.94,1.292-7.689,4.537-10.071,4.684
					c-2.381,0.147-10.342-0.533-16.875,1.372s-12.044,2.109-12.792,1.565c-0.748-0.544,4.083-11.432,4.083-12.928l-8.097-2.109
					c0,0-2.314,9.662-3.221,11.84c-0.97,2.329-2.835,6.713-0.181,10.524s10.07,2.093,14.561,2.861
					c4.491,0.768,24.592,0.275,28.103,0.087c3.81-0.204,15.31-0.749,15.31-0.749L241.249,178.842z"/>
				<path fill="#EEA886" d="M289.869,157.329c0,0,0.377,5.848-0.921,7.602c-0.52,0.702-0.873,1.083-1.108,1.289
					c-0.333,0.29-0.591,0.656-0.74,1.072c-0.401,1.125-0.648,2.708-0.968,3.046c-0.348,0.368-1.358-0.569-1.724-0.571
					c-0.365-0.002-3.928,3.073-4.779,2.443c-0.852-0.629-6.049-5.903-5.613-9.519c0.437-3.615,2.032-9.014,7.883-8.98
					C287.751,153.744,289.422,155.874,289.869,157.329z"/>
				<path fill="#FFC955" d="M272.187,185.238c-0.113,0.24-2.264,3.675-4.622,5.669c-0.978,0.828-1.991,1.407-2.909,1.407
					c-0.28,0-0.554,0.004-0.819,0.011c-2.705,0.073-4.783,0.487-8.435,0.669c-3.794,0.189-12.996-0.34-13.269-0.34
					s-2.926,0.477-2.926,0.477c-0.953-1.157,1.564-14.222,2.041-14.29c0.476-0.068,3.538,1.089,6.464,0.612
					c2.926-0.476,4.083-0.748,8.437-5.852c4.355-5.103,8.71-6.396,10.547-5.988c1.837,0.409,5.49,0,5.49,0
					S272.344,184.898,272.187,185.238z"/>
				<path fill="#2E334D" d="M287.411,161.516c0,0,1.09,2.826,1.668,3.215c0,0,2.104-2.226,0.753-7.718s-6.45-6.009-9.741-5.451
					c-4.097,0.694-8.222,14.557-8.009,15.907c0.212,1.35,4.803-7.165,8.825-6.479C284.928,161.675,284.96,161.899,287.411,161.516z"
					/>
				<path fill="#A77860" d="M278.729,171.379c-0.306-0.028-0.753-0.02-1.261,0.151c-0.126,0.042-0.295,0.128-0.493,0.245
					c-0.941-1.467-1.813-4.946-1.841-5.064C275.762,168.616,278.729,171.379,278.729,171.379z"/>
				<path fill="#C29941" d="M267.565,190.908c-0.978,0.828-1.991,1.407-2.909,1.407c-0.28,0-0.554,0.004-0.819,0.011l1.114-10.83
					L267.565,190.908z"/>
				<path fill="#EEA886" d="M288.737,209.557l-2.612,2.376c-2.253-1.207-7.9-5.271-8.986-6.197c-1.14-0.971-8.737-7.325-9.78-8.773
					c-1.053-1.448-2.385-16.417-2.25-17.102c0.135-0.677,6.604-1.024,7.338,0.56c0,0,0.338,8.537,0.512,9.966
					c0.164,1.429,0.711,2.72,1.692,3.922c1.356,1.664,4.245,5.528,7.041,8.651C282.36,203.705,287.875,208.815,288.737,209.557z"/>
				<path fill="#FFC955" d="M272.98,180.611c0,0,0.408-11.368-3.289-11.228c-4.675,0.178-5.375,5.897-4.741,12.112
					C264.95,181.496,271.937,181.563,272.98,180.611z"/>
				<path fill="#EEA886" d="M287.479,208.444c0,0,0.348,0.547,0.852,0.718c0.871,0.294,2.158-0.272,2.792,0.868
					c0.635,1.14-2.43,3.987-3.252,4.16c-0.824,0.173-2.143-1.108-3.174-3.636C283.666,208.026,287.479,208.444,287.479,208.444z"/>
				<path fill="#EEA886" d="M290.854,209.675c0,0,1.563,1.19,3.144,2.718c1.387,1.34,2.797,3.1,2.441,3.432
					c-0.486,0.454-1.432-1.057-2.895-2.298c-1.348-1.143-1.271-0.702-1.271-0.702s-0.015-0.126,1.214,1.392
					c1.321,1.633,2.687,3.571,2.279,3.851c-0.255,0.175-0.268,0.222-0.844-0.296c0.268,0.366,0.205,0.487,0.063,0.606
					c-0.737,0.618-3.052-1.496-3.972-2.335c0.702,0.649,1.148,1.197,0.436,1.281c-0.815,0.096-3.956-3.033-5.187-4.051
					C284.918,212.162,290.854,209.675,290.854,209.675z"/>
			</g>
			<path fill="#E0E0E0" d="M243.908,179.362c0,0-1.248,8.946-0.633,13.347c0,0,0.651,0.483,1.946,0.092
				c0,0,0.323-9.765,1.048-13.232C246.27,179.569,245.871,179.268,243.908,179.362z"/>
		</g>
		<g>
			<rect x="244.205" y="18.33" fill="#E0E0E0" width="0.966" height="167.798"/>
		</g>
		<g>
			<g>
				<path fill="#5C544D" d="M162.141,431.16c0,0-0.49,3.433-0.551,3.949c-0.062,0.516-5.45-0.304-5.45-0.304l-0.437-4.088
					C155.703,430.718,161.467,430.676,162.141,431.16z"/>
			</g>
			<g>
				<path fill="#3C4145" d="M161.647,434.672c0,0,1.708,2.069,3.359,2.971s4.247,1.26,5.223,2.192
					c0.705,0.674,2.568,3.575-4.291,3.517s-10.166,0.409-10.901-0.703c-0.735-1.111,1.063-8.209,1.063-8.209
					S157.725,435.03,161.647,434.672z"/>
			</g>
			<g>
				<path fill="#5C544D" d="M200.755,431.16c0,0-0.49,3.433-0.551,3.949c-0.062,0.516-5.451-0.304-5.451-0.304l-0.437-4.088
					C194.317,430.718,200.082,430.676,200.755,431.16z"/>
			</g>
			<g>
				<path fill="#3C4145" d="M200.261,434.672c0,0,1.708,2.069,3.359,2.971s7.729,1.643,8.705,2.576
					c0.705,0.674,1.877,3.387-7.773,3.133c-6.856-0.181-10.166,0.409-10.901-0.703c-0.735-1.111,1.063-8.209,1.063-8.209
					S196.245,435.07,200.261,434.672z"/>
			</g>
			<g>
				<path fill="#33373B" d="M164.055,342.521c0,0-2.868,8.52-2.49,15.862c0.377,7.342-1.483,15.376-2.244,23.046
					c-0.848,8.55-4.318,28.793-4.444,33.366c-0.126,4.574,0.539,19.18,0.539,19.18l6.947,0.16c0,0,5.835-35.389,7.346-38.999
					c1.511-3.611,9.005-29.354,9.256-32.242C179.216,360.005,164.055,342.521,164.055,342.521z"/>
			</g>
			<g>
				<path fill="#3C4145" d="M193.26,344.037c0,0,3.816,20.123,4.32,24.617c0.503,4.493,0.839,21.746,1.091,24.556
					c0.251,2.809,1.679,36.752,3.022,40.925h-8.882c0,0-6.818-24.676-6.818-36.352s-5.267-25.382-8.667-33.085
					s-11.182-7.886-13.272-22.178C164.055,342.521,190.43,339.504,193.26,344.037z"/>
			</g>
			<g>
				<path fill="#EEA886" d="M175.21,275.264c0,0,7.001-2.616,10.229,2.714c3.228,5.329,2.917,15.998-0.612,17.31
					c-3.529,1.313-8.83,0.627-10.637-2.708c-1.806-3.335-3.438-8.155-3.359-11.377C170.91,277.98,173.373,276.193,175.21,275.264z"
					/>
			</g>
			<g>
				<path fill="#EEA886" d="M183.653,294.96c0,0-0.283,1.835,0.184,2.739c0.468,0.903-8.806,0.928-8.806,0.928
					s-0.753-4.917-2.18-9.071C171.424,285.401,183.653,294.96,183.653,294.96z"/>
			</g>
			<g>
				<path fill="#FCCCA2" d="M172.852,289.556c0,0,0.64,1.056,3.252,0.646c2.612-0.41,5.8-3.886,6.891-4.268s1.101-1.022,1.101-1.022
					l0.683,0.998l1.159,0.072c0,0-1.057-3.109,0.537-4.377s-1.655-10.063-10.033-7.135c0,0-6.435,1.773-6.201,5.434
					C170.475,283.563,171.411,287.732,172.852,289.556z"/>
			</g>
			<g>
				<path fill="#E2D2CA" d="M184.388,297.591c0,0-0.03-1.728-0.813-1.893c-0.783-0.167-8.642-0.922-9.603-0.544v2.012
					C173.973,297.166,175.824,298.306,184.388,297.591z"/>
			</g>
			<g>
				<path fill="#EEA886" d="M183.922,283.581c-0.146-0.614-1.707-2.368-2.305-0.489c-0.598,1.877,0.903,4.404,1.74,4.188
					C184.194,287.063,184.294,285.137,183.922,283.581z"/>
			</g>
			<g>
				<path fill="#495054" d="M184.388,297.591c0,0,4.308,1.549,9.298,3.669c0,0,5.74,2.143,6.362,8.482
					c0.33,3.365,3.913,21.225,4.584,22.735c0.671,1.511,8.617,25.786,8.896,26.289c0.28,0.504-6.484,3.312-6.932,3.088
					c-0.447-0.224-7.692-22.141-8.42-23.765c0,0-4.17-13.141-4.282-15.1c0,0-0.12,5.583-0.343,7.15
					c-0.224,1.567,3.708,31.997,3.596,32.837c-0.112,0.84-17.872,1.905-24.979,1.122c-7.108-0.783-12.844-2.419-12.844-2.419
					s5.593-24.015,5.421-26.677c-0.374-5.802-2.313-16.728-2.313-16.728l-5.796,10.926l7.419,19.087l-1.699,5.801
					c0,0-13.786-20.832-14.233-22.735s0.676-4.327,1.403-5.895c0.728-1.566,5.507-13.494,6.626-15.173
					c1.12-1.68,3.011-8.403,7.583-10.275c3.823-1.563,10.238-2.846,10.238-2.846L184.388,297.591z"/>
			</g>
			<g>
				
					<rect x="190.436" y="342.582" transform="matrix(-0.9687 0.2484 -0.2484 -0.9687 495.9079 645.9801)" fill="#D6D6D6" width="33.527" height="23.389"/>
			</g>
			<g>
				<path fill="#C98462" d="M216.356,363.722c0,0,0.928,1.5,1.267,1.927c0.339,0.429-0.833,0.697-1.335,0.264
					S216.356,363.722,216.356,363.722z"/>
			</g>
			<g>
				<path fill="#DE9D7D" d="M209.593,368.844c0,0-0.548-0.572-0.667-0.938c0,0-0.163-0.685-0.308-1.163
					c-0.047-0.152-0.091-0.283-0.128-0.365c-0.156-0.342-0.6-1.047-0.743-1.974c-0.144-0.925-0.548-5.08-0.548-5.08l2.516-0.634
					l2.021-0.427c0,0,4.366,4.355,4.599,5.202c0.022,0.083,0.042,0.166,0.053,0.245c0.128,0.736-0.086,1.338-0.063,1.732
					c0.007,0.144-0.014,1.589-0.351,1.859c-0.466,0.375-0.942,0.446-1.333,0.321c0,0-0.947,0.695-1.736,0.653
					c0,0-0.853,0.67-1.82,0.338C211.086,368.614,210.146,369.197,209.593,368.844z"/>
			</g>
			<g>
				<path fill="#495054" d="M199.773,342.566c0,0,5.764,17.456,6.823,19.288c0,0,4.227-0.889,6.932-3.088l-6.328-18.839
					L199.773,342.566z"/>
			</g>
		</g>
	</g>
</g>
</svg>
