<?xml version="1.0" encoding="utf-8"?>
<!-- Generator: Adobe Illustrator 16.0.0, SVG Export Plug-In . SVG Version: 6.00 Build 0)  -->
<!DOCTYPE svg PUBLIC "-//W3C//DTD SVG 1.1//EN" "http://www.w3.org/Graphics/SVG/1.1/DTD/svg11.dtd">
<svg version="1.1" id="Layer_1" xmlns="http://www.w3.org/2000/svg" xmlns:xlink="http://www.w3.org/1999/xlink" x="0px" y="0px"
	 width="447px" height="325px" viewBox="0 0 447 325" enable-background="new 0 0 447 325" xml:space="preserve">
<g>
	<g>
		<path opacity="0.68" fill="#F1F4FF" enable-background="new    " d="M56.341,32.674h390.058v246.994H56.341V32.674z"/>
		<path fill="#6747C7" d="M446.822,33.463v-14.6c0-3.548-2.354-6.424-5.256-6.424H62.026c-2.903,0-5.258,2.875-5.26,6.423v14.6
			L446.822,33.463L446.822,33.463z"/>
		<path opacity="0.42" fill="#FFFFFF" enable-background="new    " d="M425.902,17.628h6.299c1.248,0,2.26,1.012,2.26,2.26v5.857
			c0,1.248-1.012,2.26-2.26,2.26h-6.299c-1.248,0-2.261-1.012-2.261-2.26v-5.857C423.642,18.64,424.654,17.628,425.902,17.628z"/>
		<path opacity="0.23" fill="#C4A4F7" enable-background="new    " d="M2.291,0h179.471c1.266,0,2.291,1.026,2.291,2.291v94.542
			c0,1.265-1.025,2.291-2.291,2.291H2.291C1.026,99.124,0,98.098,0,96.833V2.291C0,1.026,1.026,0,2.291,0z"/>
		<path fill="#FFFFFF" d="M13.483,11.933h48.791v34.804H13.483V11.933z M13.483,53.959h48.791v34.804H13.483V53.959z"/>
		<path fill="#FAF9FE" d="M75.533,53.441h41.47c0.762,0,1.379,0.618,1.379,1.379v4.962c0,0.761-0.617,1.379-1.379,1.379h-41.47
			c-0.762,0-1.379-0.618-1.379-1.379V54.82C74.154,54.059,74.771,53.441,75.533,53.441z"/>
		<path fill="#FAF9FE" d="M75.274,71.6h88.266c0.905,0,1.638,0.733,1.638,1.638v2.897c0,0.905-0.733,1.638-1.638,1.638H75.274
			c-0.905,0-1.638-0.733-1.638-1.638v-2.897C73.636,72.333,74.369,71.6,75.274,71.6z"/>
		<path fill="#FAF9FE" d="M75.274,80.939h88.266c0.905,0,1.638,0.733,1.638,1.638v2.898c0,0.905-0.733,1.638-1.638,1.638H75.274
			c-0.905,0-1.638-0.733-1.638-1.638v-2.898C73.636,81.672,74.369,80.939,75.274,80.939z"/>
		<path fill="#FAF9FE" d="M74.496,12.971h41.47c0.762,0,1.379,0.618,1.379,1.379v4.962c0,0.762-0.617,1.379-1.379,1.379h-41.47
			c-0.762,0-1.379-0.617-1.379-1.379V14.35C73.117,13.588,73.734,12.971,74.496,12.971z"/>
		<path fill="#FAF9FE" d="M74.237,31.13h88.266c0.905,0,1.638,0.733,1.638,1.638v2.898c0,0.905-0.733,1.638-1.638,1.638H74.237
			c-0.904,0-1.638-0.733-1.638-1.638v-2.898C72.599,31.863,73.333,31.13,74.237,31.13z"/>
		<path fill="#FAF9FE" d="M74.237,40.47h88.266c0.905,0,1.638,0.733,1.638,1.638v2.898c0,0.905-0.733,1.638-1.638,1.638H74.237
			c-0.904,0-1.638-0.733-1.638-1.638v-2.898C72.599,41.203,73.333,40.47,74.237,40.47z"/>
		<path fill="#FCC2C2" d="M411.465,17.628h6.299c1.248,0,2.26,1.012,2.26,2.26v5.857c0,1.248-1.012,2.26-2.26,2.26h-6.299
			c-1.248,0-2.26-1.012-2.26-2.26v-5.857C409.205,18.64,410.217,17.628,411.465,17.628z"/>
	</g>
	<path opacity="0.488" fill="#FFFFFF" enable-background="new    " d="M304.395,149.426h88.156c1.146,0,2.074,0.929,2.074,2.074
		v2.597c0,1.145-0.929,2.074-2.074,2.074h-88.156c-1.145,0-2.073-0.929-2.073-2.074V151.5
		C302.321,150.354,303.25,149.426,304.395,149.426z"/>
	<path fill="#E6AA85" d="M146.863,184l7.67,1.298c1.852,0.312,3.704,0.625,4.321,0.625s0.926,1.25,0,1.25s-4.939,0-5.247,0.62
		c-0.309,0.622,0.308,5.312,0.926,5.938c0.617,0.625,1.234,2.5,2.469,3.125c1.235,0.625,3.087,1.25,2.47,1.562
		c-0.618,0.312-0.927,1.25-2.161,1.25c-1.235,0-7.717,0.938-8.334,0c-0.618-0.938-1.98-2.212-2.691-3.137
		c-0.713-0.926-2.248-7.487-3.166-8.737S146.863,184,146.863,184z"/>
</g>
<g>
	<ellipse fill="#E2EAFD" cx="241.334" cy="293.691" rx="131.819" ry="12.737"/>
	<ellipse fill="#E2EAFD" cx="366.664" cy="306.429" rx="74.5" ry="12.736"/>
	<g>
		<g>
			<g>
				<rect x="268.61" y="131.352" fill="#01195F" width="4.729" height="5.609"/>
				<rect x="230.693" y="131.352" fill="#01195F" width="4.729" height="5.609"/>
				<g>
					<rect x="201.381" y="131.352" fill="#01195F" width="4.73" height="5.609"/>
					<polyline fill="none" stroke="#01195F" stroke-linecap="round" stroke-linejoin="round" stroke-miterlimit="10" points="
						203.745,134.157 203.745,155.361 165.982,155.361 165.982,163.72 					"/>
					<rect x="163.345" y="158.53" fill="#01195F" width="5.274" height="5.189"/>
				</g>
				<g>
					<rect x="296.461" y="131.352" fill="#01195F" width="4.731" height="5.609"/>
					<polyline fill="none" stroke="#01195F" stroke-linecap="round" stroke-linejoin="round" stroke-miterlimit="10" points="
						298.827,134.157 298.827,155.361 336.59,155.361 336.59,163.72 					"/>
					<rect x="333.952" y="158.53" fill="#01195F" width="5.275" height="5.189"/>
				</g>
				<polyline fill="none" stroke="#01195F" stroke-linecap="round" stroke-linejoin="round" stroke-miterlimit="10" points="
					233.059,134.157 233.059,180.9 264.77,180.9 264.77,227.645 				"/>
				<polyline fill="none" stroke="#01195F" stroke-linecap="round" stroke-linejoin="round" stroke-miterlimit="10" points="
					270.975,134.157 270.975,167.834 245.97,167.834 245.97,228.543 				"/>
				<path fill="#CBEAFE" d="M246.08,129.029v0.047c-0.015,2.131-1.856,3.801-3.988,3.801h-49.704c-2.312,0-4.185-1.873-4.185-4.177
					c0-0.854,0.259-1.662,0.705-2.328c0.024-0.031,0.047-0.07,0.079-0.102c0.345-0.494,0.807-0.91,1.333-1.207
					c0.023-0.016,0.047-0.031,0.07-0.047c1.168-0.807,2.586-1.277,4.107-1.277c0.438,0,0.862,0.047,1.278,0.117
					c-0.008-0.18-0.024-0.368-0.024-0.556c0-5.157,4.178-9.334,9.334-9.334c0.525,0,1.042,0.055,1.544,0.134
					c1.144-3.864,4.718-6.686,8.95-6.686c1.528,0,2.971,0.369,4.239,1.019c2.422,1.23,4.224,3.495,4.852,6.207
					c1.481-0.596,3.135-0.831,4.883-0.564c3.73,0.556,6.787,3.417,7.672,7.085c0.338,1.418,0.321,2.688,0.086,3.887
					c0.933-0.815,2.148-1.309,3.48-1.309c2.813,0,5.11,2.187,5.274,4.961C246.08,128.811,246.08,128.92,246.08,129.029z"/>
				<path fill="#E0F2FE" d="M246.08,129.029v0.047c-0.015,2.131-1.856,3.801-3.988,3.801h-41.239c-2.312,0-4.185-1.873-4.185-4.177
					c0-0.854,0.258-1.662,0.705-2.328c0.023-0.031,0.047-0.07,0.078-0.102c0.345-0.494,0.807-0.91,1.332-1.207
					c0.024-0.016,0.047-0.031,0.07-0.047c1.168-0.807,2.587-1.277,4.107-1.277c0.439,0,0.862,0.047,1.278,0.117
					c-0.008-0.18-0.023-0.368-0.023-0.556c0-5.157,4.177-9.334,9.333-9.334c0.525,0,1.042,0.055,1.544,0.134
					c0.737-2.477,2.461-4.522,4.726-5.667c2.422,1.23,4.224,3.495,4.852,6.207c1.481-0.596,3.135-0.831,4.883-0.564
					c3.73,0.556,6.787,3.417,7.672,7.085c0.338,1.418,0.321,2.688,0.086,3.887c0.933-0.815,2.148-1.309,3.48-1.309
					c2.813,0,5.11,2.187,5.274,4.961C246.08,128.811,246.08,128.92,246.08,129.029z"/>
				<g>
					<polygon fill="#01195F" points="220.062,125.328 220.062,119.033 213.269,119.033 213.269,125.328 210.642,125.328 
						216.665,131.352 222.689,125.328 					"/>
				</g>
				<path fill="#CBEAFE" d="M312.423,129.029v0.047c-0.016,2.131-1.857,3.801-3.989,3.801H258.73c-2.312,0-4.186-1.873-4.186-4.177
					c0-0.854,0.259-1.662,0.706-2.328c0.023-0.031,0.046-0.07,0.078-0.102c0.344-0.494,0.808-0.91,1.332-1.207
					c0.023-0.016,0.047-0.031,0.07-0.047c1.169-0.807,2.587-1.277,4.106-1.277c0.439,0,0.863,0.047,1.278,0.117
					c-0.008-0.18-0.023-0.368-0.023-0.556c0-5.157,4.177-9.334,9.333-9.334c0.525,0,1.043,0.055,1.545,0.134
					c1.145-3.864,4.717-6.686,8.949-6.686c1.482,0,2.877,0.337,4.115,0.956c2.484,1.215,4.342,3.511,4.977,6.27
					c1.481-0.596,3.135-0.831,4.883-0.564c3.729,0.556,6.787,3.417,7.672,7.085c0.338,1.418,0.321,2.688,0.088,3.887
					c0.932-0.815,2.146-1.309,3.479-1.309c2.813,0,5.109,2.187,5.274,4.961C312.423,128.811,312.423,128.92,312.423,129.029z"/>
				<path fill="#E0F2FE" d="M312.423,129.029v0.047c-0.016,2.131-1.857,3.801-3.989,3.801h-41.489c-2.313,0-4.186-1.873-4.186-4.177
					c0-0.854,0.259-1.662,0.705-2.328c0.023-0.031,0.047-0.07,0.078-0.102c0.345-0.494,0.808-0.91,1.332-1.207
					c0.023-0.016,0.047-0.031,0.071-0.047c1.168-0.807,2.586-1.277,4.107-1.277c0.438,0,0.861,0.047,1.276,0.117
					c-0.008-0.18-0.023-0.368-0.023-0.556c0-5.157,4.178-9.334,9.334-9.334c0.525,0,1.043,0.055,1.545,0.134
					c0.744-2.524,2.531-4.601,4.851-5.729c2.484,1.215,4.342,3.511,4.977,6.27c1.481-0.596,3.135-0.831,4.883-0.564
					c3.729,0.556,6.787,3.417,7.672,7.085c0.338,1.418,0.321,2.688,0.088,3.887c0.932-0.815,2.146-1.309,3.479-1.309
					c2.813,0,5.109,2.187,5.274,4.961C312.423,128.811,312.423,128.92,312.423,129.029z"/>
				<g>
					<g>
						<polygon fill="#01195F" points="279.611,120.353 279.611,126.646 286.403,126.646 286.403,120.353 289.03,120.353 
							283.007,114.329 276.982,120.353 						"/>
					</g>
				</g>
			</g>
			<g>
				<g>
					<g opacity="0.5">
						<polygon fill="#FF65AB" points="264.77,159.383 315.855,151.43 315.855,142.594 264.77,134.641 						"/>
						<polygon fill="#FF65AB" points="373.38,159.383 322.294,151.43 322.294,142.594 373.38,134.641 						"/>
					</g>
					<path fill="#5795C2" d="M281.358,293.62h66.616c3.319,0,6.009-2.688,6.009-6.008V167.834c0-3.317-2.689-6.008-6.009-6.008
						h-66.616c-3.318,0-6.008,2.691-6.008,6.008v119.778C275.351,290.932,278.04,293.62,281.358,293.62z"/>
					<g>
						<path fill="#7EC4F7" d="M290.176,293.62h66.616c3.318,0,6.008-2.688,6.008-6.008V167.834c0-3.317-2.689-6.008-6.008-6.008
							h-66.616c-3.318,0-6.009,2.691-6.009,6.008v119.778C284.167,290.932,286.857,293.62,290.176,293.62z"/>
						<path fill="#F4FCFF" d="M358.882,287.612V167.834c0-1.154-0.936-2.09-2.09-2.09h-66.616c-1.154,0-2.091,0.936-2.091,2.09
							v119.778c0,1.154,0.937,2.09,2.091,2.09h66.616C357.946,289.702,358.882,288.767,358.882,287.612z"/>
						<polygon fill="#556CD4" points="334.695,170.251 312.271,170.251 292.004,170.251 292.004,181.745 292.004,193.24 
							292.004,204.734 317.26,204.734 329.708,204.734 354.963,204.734 354.963,193.24 354.963,181.745 354.963,170.251 						"/>
						<g>
							<rect x="292.004" y="250.712" fill="#556CD4" width="62.959" height="11.495"/>
							<g>
								<rect x="350.141" y="252.854" fill="#F4FCFF" width="1.814" height="7.213"/>
								<rect x="345.548" y="252.854" fill="#F4FCFF" width="1.813" height="7.213"/>
								<rect x="340.953" y="252.854" fill="#F4FCFF" width="1.814" height="7.213"/>
								<rect x="336.358" y="252.854" fill="#F4FCFF" width="1.813" height="7.213"/>
								<rect x="331.765" y="252.854" fill="#F4FCFF" width="1.814" height="7.213"/>
								<rect x="313.389" y="252.854" fill="#F4FCFF" width="1.813" height="7.213"/>
								<rect x="308.795" y="252.854" fill="#F4FCFF" width="1.813" height="7.213"/>
								<rect x="304.199" y="252.854" fill="#F4FCFF" width="1.814" height="7.213"/>
								<rect x="299.606" y="252.854" fill="#F4FCFF" width="1.813" height="7.213"/>
								<rect x="295.013" y="252.854" fill="#F4FCFF" width="1.813" height="7.213"/>
							</g>
							<circle fill="#BDE5F1" cx="323.484" cy="256.46" r="1.81"/>
						</g>
						<g>
							<rect x="292.004" y="262.207" fill="#556CD4" width="62.959" height="11.495"/>
							<rect x="292.004" y="262.207" fill="#01195F" width="62.959" height="0.521"/>
							<g>
								<rect x="350.141" y="264.348" fill="#F4FCFF" width="1.814" height="7.213"/>
								<rect x="345.548" y="264.348" fill="#F4FCFF" width="1.813" height="7.213"/>
								<rect x="340.953" y="264.348" fill="#F4FCFF" width="1.814" height="7.213"/>
								<rect x="336.358" y="264.348" fill="#F4FCFF" width="1.813" height="7.213"/>
								<rect x="331.765" y="264.348" fill="#F4FCFF" width="1.814" height="7.213"/>
								<rect x="313.389" y="264.348" fill="#F4FCFF" width="1.813" height="7.213"/>
								<rect x="308.795" y="264.348" fill="#F4FCFF" width="1.813" height="7.213"/>
								<rect x="304.199" y="264.348" fill="#F4FCFF" width="1.814" height="7.213"/>
								<rect x="299.606" y="264.348" fill="#F4FCFF" width="1.813" height="7.213"/>
								<rect x="295.013" y="264.348" fill="#F4FCFF" width="1.813" height="7.213"/>
							</g>
							<circle fill="#BDE5F1" cx="323.484" cy="267.954" r="1.81"/>
						</g>
						<g>
							<rect x="292.004" y="273.702" fill="#556CD4" width="62.959" height="11.494"/>
							<rect x="292.004" y="273.702" fill="#01195F" width="62.959" height="0.629"/>
							<g>
								<rect x="350.141" y="275.842" fill="#F4FCFF" width="1.814" height="7.215"/>
								<rect x="345.548" y="275.842" fill="#F4FCFF" width="1.813" height="7.215"/>
								<rect x="340.953" y="275.842" fill="#F4FCFF" width="1.814" height="7.215"/>
								<rect x="336.358" y="275.842" fill="#F4FCFF" width="1.813" height="7.215"/>
								<rect x="331.765" y="275.842" fill="#F4FCFF" width="1.814" height="7.215"/>
								<rect x="313.389" y="275.842" fill="#F4FCFF" width="1.813" height="7.215"/>
								<rect x="308.795" y="275.842" fill="#F4FCFF" width="1.813" height="7.215"/>
								<rect x="304.199" y="275.842" fill="#F4FCFF" width="1.814" height="7.215"/>
								<rect x="299.606" y="275.842" fill="#F4FCFF" width="1.813" height="7.215"/>
								<rect x="295.013" y="275.842" fill="#F4FCFF" width="1.813" height="7.215"/>
							</g>
							<circle fill="#BDE5F1" cx="323.484" cy="279.448" r="1.81"/>
						</g>
						<g>
							<g>
								<rect x="292.004" y="210.482" fill="#556CD4" width="62.959" height="11.494"/>
								<circle fill="#01195F" cx="323.483" cy="216.23" r="1.844"/>
							</g>
							<g>
								<rect x="292.004" y="221.977" fill="#FF65AB" width="62.959" height="11.494"/>
								<rect x="292.004" y="221.977" fill="#A6426F" width="62.959" height="0.689"/>
								<circle fill="#01195F" cx="323.483" cy="227.725" r="1.844"/>
							</g>
							<g>
								<rect x="292.004" y="233.471" fill="#556CD4" width="62.959" height="11.495"/>
								<rect x="292.004" y="233.471" fill="#010D33" width="62.959" height="0.798"/>
								<circle fill="#01195F" cx="323.483" cy="239.218" r="1.844"/>
							</g>
						</g>
						<g>
							<rect x="292.788" y="171.035" fill="#FF65AB" width="5.428" height="5.329"/>
							<rect x="299.783" y="171.035" fill="#55D4AA" width="5.429" height="5.329"/>
							<rect x="306.779" y="171.035" fill="#55D4AA" width="5.428" height="5.329"/>
							<rect x="313.775" y="171.035" fill="#55D4AA" width="5.428" height="5.329"/>
							<rect x="320.77" y="171.035" fill="#FFEA9B" width="5.429" height="5.329"/>
							<rect x="327.765" y="171.035" fill="#55D4AA" width="5.429" height="5.329"/>
							<rect x="334.761" y="171.035" fill="#FF65AB" width="5.428" height="5.329"/>
							<rect x="341.756" y="171.035" fill="#55D4AA" width="5.428" height="5.329"/>
							<rect x="348.751" y="171.035" fill="#FFEA9B" width="5.428" height="5.329"/>
							<rect x="292.788" y="177.932" fill="#55D4AA" width="5.428" height="5.329"/>
							<rect x="299.783" y="177.932" fill="#FFEA9B" width="5.429" height="5.329"/>
							<rect x="306.779" y="177.932" fill="#FF65AB" width="5.428" height="5.329"/>
							<rect x="313.775" y="177.932" fill="#55D4AA" width="5.428" height="5.329"/>
							<rect x="320.77" y="177.932" fill="#55D4AA" width="5.429" height="5.329"/>
							<rect x="327.765" y="177.932" fill="#55D4AA" width="5.429" height="5.329"/>
							<rect x="334.761" y="177.932" fill="#55D4AA" width="5.428" height="5.329"/>
							<rect x="341.756" y="177.932" fill="#55D4AA" width="5.428" height="5.329"/>
							<rect x="348.751" y="177.932" fill="#FF65AB" width="5.428" height="5.329"/>
							<rect x="292.788" y="184.829" fill="#55D4AA" width="5.428" height="5.329"/>
							<rect x="299.783" y="184.829" fill="#55D4AA" width="5.429" height="5.329"/>
							<rect x="306.779" y="184.829" fill="#55D4AA" width="5.428" height="5.329"/>
							<rect x="313.775" y="184.829" fill="#55D4AA" width="5.428" height="5.329"/>
							<rect x="320.77" y="184.829" fill="#FFEA9B" width="5.429" height="5.329"/>
							<rect x="327.765" y="184.829" fill="#FF65AB" width="5.429" height="5.329"/>
							<rect x="334.761" y="184.829" fill="#55D4AA" width="5.428" height="5.329"/>
							<rect x="341.756" y="184.829" fill="#FFEA9B" width="5.428" height="5.329"/>
							<rect x="348.751" y="184.829" fill="#55D4AA" width="5.428" height="5.329"/>
							<rect x="292.788" y="191.725" fill="#55D4AA" width="5.428" height="5.33"/>
							<rect x="299.783" y="191.725" fill="#FF65AB" width="5.429" height="5.33"/>
							<rect x="306.779" y="191.725" fill="#FFEA9B" width="5.428" height="5.33"/>
							<rect x="313.775" y="191.725" fill="#55D4AA" width="5.428" height="5.33"/>
							<rect x="320.77" y="191.725" fill="#FFEA9B" width="5.429" height="5.33"/>
							<rect x="327.765" y="191.725" fill="#55D4AA" width="5.429" height="5.33"/>
							<rect x="334.761" y="191.725" fill="#55D4AA" width="5.428" height="5.33"/>
							<rect x="341.756" y="191.725" fill="#55D4AA" width="5.428" height="5.33"/>
							<rect x="348.751" y="191.725" fill="#55D4AA" width="5.428" height="5.33"/>
							<rect x="292.788" y="198.623" fill="#55D4AA" width="5.428" height="5.328"/>
							<rect x="299.783" y="198.623" fill="#55D4AA" width="5.429" height="5.328"/>
							<rect x="306.779" y="198.623" fill="#55D4AA" width="5.428" height="5.328"/>
							<rect x="313.775" y="198.623" fill="#55D4AA" width="5.428" height="5.328"/>
							<rect x="320.77" y="198.623" fill="#55D4AA" width="5.429" height="5.328"/>
							<rect x="327.765" y="198.623" fill="#FFEA9B" width="5.429" height="5.328"/>
							<rect x="334.761" y="198.623" fill="#55D4AA" width="5.428" height="5.328"/>
							<rect x="341.756" y="198.623" fill="#55D4AA" width="5.428" height="5.328"/>
							<rect x="348.751" y="198.623" fill="#FFEA9B" width="5.428" height="5.328"/>
						</g>
					</g>
					<path fill="#37468A" d="M330.401,158.528c0,1.819-1.473,3.301-3.299,3.301h-16.059c-0.91,0-1.731-0.369-2.328-0.964
						c-0.596-0.604-0.964-1.427-0.964-2.336c0-1.818,1.473-3.291,3.292-3.291h16.059c0.909,0,1.74,0.368,2.335,0.963
						C330.033,156.797,330.401,157.62,330.401,158.528z"/>
					<path fill="#556CD4" d="M325.104,158.528c0,1.819-1.481,3.301-3.299,3.301h-10.761c-0.91,0-1.731-0.369-2.328-0.964
						c-0.596-0.604-0.964-1.427-0.964-2.336c0-1.818,1.473-3.291,3.292-3.291h10.761c0.908,0,1.731,0.368,2.335,0.963
						C324.735,156.797,325.104,157.62,325.104,158.528z"/>
					<path fill="#FF65AB" d="M319.075,138.79L319.075,138.79c-4.163,0-7.537,3.375-7.537,7.538v8.907h15.075v-8.907
						C326.613,142.165,323.238,138.79,319.075,138.79z"/>
					<path fill="#A6426F" d="M319.075,138.79L319.075,138.79c-0.679,0-1.231,0.551-1.231,1.231v13.983c0,0.68,0.553,1.23,1.231,1.23
						l0,0c0.68,0,1.23-0.551,1.23-1.23v-13.983C320.306,139.341,319.755,138.79,319.075,138.79z"/>
				</g>
				<g>
					<path fill="#5795C2" d="M208.107,293.62h-66.617c-3.318,0-6.008-2.688-6.008-6.008V167.834c0-3.317,2.69-6.008,6.008-6.008
						h66.617c3.318,0,6.008,2.691,6.008,6.008v119.778C214.116,290.932,211.426,293.62,208.107,293.62z"/>
					<g>
						<path fill="#7EC4F7" d="M199.291,293.62h-66.617c-3.318,0-6.008-2.688-6.008-6.008V167.834c0-3.317,2.69-6.008,6.008-6.008
							h66.617c3.318,0,6.009,2.691,6.009,6.008v119.778C205.299,290.932,202.609,293.62,199.291,293.62z"/>
						<path fill="#F4FCFF" d="M132.674,289.702c-1.152,0-2.09-0.938-2.09-2.09V167.834c0-1.152,0.938-2.09,2.09-2.09h66.616
							c1.153,0,2.09,0.938,2.09,2.09v119.778c0,1.152-0.938,2.09-2.09,2.09H132.674z"/>
						<g>
							<rect x="134.503" y="170.251" fill="#556CD4" width="62.959" height="11.494"/>
							<polygon fill="#01195F" points="172.206,181.745 177.193,170.251 154.771,170.251 159.759,181.745 							"/>
							<circle fill="#E8F9FF" cx="165.982" cy="175.998" r="1.959"/>
							<g>
								<g>
									<rect x="140.021" y="173.141" fill="#FF65AB" width="10.188" height="1.764"/>
									<rect x="140.021" y="177.093" fill="#FF65AB" width="10.188" height="1.764"/>
								</g>
								<g>
									<rect x="181.755" y="173.141" fill="#FEEB9C" width="10.188" height="1.764"/>
									<rect x="181.755" y="177.093" fill="#FEEB9C" width="10.188" height="1.764"/>
								</g>
							</g>
						</g>
						<g>
							<rect x="134.503" y="181.745" fill="#556CD4" width="62.959" height="11.495"/>
							<rect x="134.503" y="181.745" fill="#01195F" width="62.959" height="0.595"/>
							<polygon fill="#01195F" points="172.206,193.24 177.193,181.745 154.771,181.745 159.759,193.24 							"/>
							<circle fill="#E8F9FF" cx="165.982" cy="187.493" r="1.959"/>
							<g>
								<g>
									<rect x="140.021" y="184.636" fill="#FEEB9C" width="10.188" height="1.764"/>
									<rect x="140.021" y="188.587" fill="#FEEB9C" width="10.188" height="1.763"/>
								</g>
								<g>
									<rect x="181.755" y="184.636" fill="#FF65AB" width="10.188" height="1.764"/>
									<rect x="181.755" y="188.587" fill="#FF65AB" width="10.188" height="1.763"/>
								</g>
							</g>
						</g>
						<g>
							<rect x="134.503" y="193.24" fill="#556CD4" width="62.959" height="11.494"/>
							<rect x="134.503" y="193.24" fill="#01195F" width="62.959" height="0.535"/>
							<polygon fill="#01195F" points="172.206,204.734 177.193,193.24 154.771,193.24 159.759,204.734 							"/>
							<circle fill="#E8F9FF" cx="165.982" cy="198.987" r="1.959"/>
							<g>
								<g>
									<rect x="140.021" y="196.13" fill="#FF65AB" width="10.188" height="1.763"/>
									<rect x="140.021" y="200.081" fill="#FF65AB" width="10.188" height="1.764"/>
								</g>
								<g>
									<rect x="181.755" y="196.13" fill="#FEEB9C" width="10.188" height="1.763"/>
									<rect x="181.755" y="200.081" fill="#FEEB9C" width="10.188" height="1.764"/>
								</g>
							</g>
						</g>
						<polygon fill="#0154A4" points="177.193,204.734 154.771,204.734 134.503,204.734 134.503,216.23 134.503,227.725 
							134.503,239.218 134.503,250.712 159.759,250.712 172.206,250.712 197.462,250.712 197.462,239.218 197.462,227.725 
							197.462,216.23 197.462,204.734 						"/>
						<g>
							<rect x="134.503" y="250.712" fill="#556CD4" width="62.959" height="11.495"/>
							<g>
								<rect x="137.511" y="250.712" fill="#01195F" width="1.814" height="11.495"/>
								<rect x="142.104" y="250.712" fill="#01195F" width="1.814" height="11.495"/>
								<rect x="146.699" y="250.712" fill="#01195F" width="1.813" height="11.495"/>
								<rect x="151.293" y="250.712" fill="#01195F" width="1.813" height="11.495"/>
								<rect x="155.887" y="250.712" fill="#01195F" width="1.814" height="11.495"/>
								<rect x="160.481" y="250.712" fill="#01195F" width="1.814" height="11.495"/>
								<rect x="165.075" y="250.712" fill="#01195F" width="1.814" height="11.495"/>
								<rect x="169.669" y="250.712" fill="#01195F" width="1.814" height="11.495"/>
								<rect x="174.264" y="250.712" fill="#01195F" width="1.813" height="11.495"/>
								<rect x="178.857" y="250.712" fill="#01195F" width="1.813" height="11.495"/>
								<rect x="183.452" y="250.712" fill="#01195F" width="1.814" height="11.495"/>
								<rect x="188.046" y="250.712" fill="#01195F" width="1.813" height="11.495"/>
								<rect x="192.64" y="250.712" fill="#01195F" width="1.813" height="11.495"/>
							</g>
						</g>
						<g>
							<rect x="134.503" y="262.207" fill="#556CD4" width="62.959" height="11.495"/>
							<rect x="134.503" y="262.207" fill="#01195F" width="62.959" height="0.452"/>
							<g>
								<rect x="137.511" y="262.207" fill="#01195F" width="1.814" height="11.495"/>
								<rect x="142.104" y="262.207" fill="#01195F" width="1.814" height="11.495"/>
								<rect x="146.699" y="262.207" fill="#01195F" width="1.813" height="11.495"/>
								<rect x="151.293" y="262.207" fill="#01195F" width="1.813" height="11.495"/>
								<rect x="155.887" y="262.207" fill="#01195F" width="1.814" height="11.495"/>
								<rect x="160.481" y="262.207" fill="#01195F" width="1.814" height="11.495"/>
								<rect x="165.075" y="262.207" fill="#01195F" width="1.814" height="11.495"/>
								<rect x="169.669" y="262.207" fill="#01195F" width="1.814" height="11.495"/>
								<rect x="174.264" y="262.207" fill="#01195F" width="1.813" height="11.495"/>
								<rect x="178.857" y="262.207" fill="#01195F" width="1.813" height="11.495"/>
								<rect x="183.452" y="262.207" fill="#01195F" width="1.814" height="11.495"/>
								<rect x="188.046" y="262.207" fill="#01195F" width="1.813" height="11.495"/>
								<rect x="192.64" y="262.207" fill="#01195F" width="1.813" height="11.495"/>
							</g>
						</g>
						<g>
							<rect x="134.503" y="273.702" fill="#556CD4" width="62.959" height="11.494"/>
							<rect x="134.503" y="273.702" fill="#01195F" width="62.959" height="0.531"/>
							<g>
								<rect x="137.511" y="273.702" fill="#01195F" width="1.814" height="11.494"/>
								<rect x="142.104" y="273.702" fill="#01195F" width="1.814" height="11.494"/>
								<rect x="146.699" y="273.702" fill="#01195F" width="1.813" height="11.494"/>
								<rect x="151.293" y="273.702" fill="#01195F" width="1.813" height="11.494"/>
								<rect x="155.887" y="273.702" fill="#01195F" width="1.814" height="11.494"/>
								<rect x="160.481" y="273.702" fill="#01195F" width="1.814" height="11.494"/>
								<rect x="165.075" y="273.702" fill="#01195F" width="1.814" height="11.494"/>
								<rect x="169.669" y="273.702" fill="#01195F" width="1.814" height="11.494"/>
								<rect x="174.264" y="273.702" fill="#01195F" width="1.813" height="11.494"/>
								<rect x="178.857" y="273.702" fill="#01195F" width="1.813" height="11.494"/>
								<rect x="183.452" y="273.702" fill="#01195F" width="1.814" height="11.494"/>
								<rect x="188.046" y="273.702" fill="#01195F" width="1.813" height="11.494"/>
								<rect x="192.64" y="273.702" fill="#01195F" width="1.813" height="11.494"/>
							</g>
						</g>
						<g>
							<g>
								<circle fill="#01195F" cx="139.842" cy="210.606" r="1.47"/>
								<circle fill="#01195F" cx="146.585" cy="210.606" r="1.469"/>
								<circle fill="#01195F" cx="153.329" cy="210.606" r="1.469"/>
								<circle fill="#01195F" cx="160.072" cy="210.606" r="1.469"/>
								<circle fill="#01195F" cx="166.816" cy="210.606" r="1.469"/>
								<circle fill="#01195F" cx="173.559" cy="210.606" r="1.469"/>
							</g>
							<g>
								<circle fill="#01195F" cx="139.842" cy="217.453" r="1.47"/>
								<circle fill="#01195F" cx="146.585" cy="217.453" r="1.469"/>
								<circle fill="#01195F" cx="153.329" cy="217.453" r="1.469"/>
								<circle fill="#01195F" cx="160.072" cy="217.453" r="1.469"/>
								<circle fill="#01195F" cx="166.816" cy="217.453" r="1.469"/>
								<circle fill="#01195F" cx="173.559" cy="217.453" r="1.469"/>
							</g>
							<g>
								<circle fill="#01195F" cx="139.842" cy="224.299" r="1.47"/>
								<circle fill="#01195F" cx="146.585" cy="224.299" r="1.469"/>
								<circle fill="#01195F" cx="153.329" cy="224.299" r="1.469"/>
								<circle fill="#01195F" cx="160.072" cy="224.299" r="1.469"/>
								<circle fill="#01195F" cx="166.816" cy="224.299" r="1.469"/>
								<circle fill="#01195F" cx="173.559" cy="224.299" r="1.469"/>
							</g>
							<g>
								<circle fill="#01195F" cx="139.842" cy="231.146" r="1.47"/>
								<circle fill="#01195F" cx="146.585" cy="231.146" r="1.469"/>
								<circle fill="#01195F" cx="153.329" cy="231.146" r="1.469"/>
								<circle fill="#01195F" cx="160.072" cy="231.146" r="1.469"/>
								<circle fill="#01195F" cx="166.816" cy="231.146" r="1.469"/>
								<circle fill="#01195F" cx="173.559" cy="231.146" r="1.469"/>
							</g>
							<g>
								<circle fill="#01195F" cx="139.842" cy="237.994" r="1.47"/>
								<circle fill="#01195F" cx="146.585" cy="237.994" r="1.469"/>
								<circle fill="#01195F" cx="153.329" cy="237.994" r="1.469"/>
								<circle fill="#01195F" cx="160.072" cy="237.994" r="1.469"/>
								<circle fill="#01195F" cx="166.816" cy="237.994" r="1.469"/>
								<circle fill="#01195F" cx="173.559" cy="237.994" r="1.469"/>
							</g>
							<g>
								<circle fill="#01195F" cx="139.842" cy="244.842" r="1.47"/>
								<circle fill="#01195F" cx="146.585" cy="244.842" r="1.469"/>
								<circle fill="#01195F" cx="153.329" cy="244.842" r="1.469"/>
								<circle fill="#01195F" cx="160.072" cy="244.842" r="1.469"/>
								<circle fill="#01195F" cx="166.816" cy="244.842" r="1.469"/>
								<circle fill="#01195F" cx="173.559" cy="244.842" r="1.469"/>
							</g>
						</g>
						<g>
							<rect x="181.755" y="206.567" fill="#55D4AA" width="13.437" height="1.467"/>
							<rect x="181.755" y="209.972" fill="#55D4AA" width="13.437" height="1.466"/>
							<rect x="181.755" y="213.375" fill="#55D4AA" width="13.437" height="1.467"/>
							<rect x="181.755" y="216.779" fill="#55D4AA" width="13.437" height="1.467"/>
							<rect x="181.755" y="220.184" fill="#55D4AA" width="13.437" height="1.465"/>
							<rect x="181.755" y="223.587" fill="#FEEB9C" width="13.437" height="1.466"/>
							<rect x="181.755" y="226.991" fill="#FEEB9C" width="13.437" height="1.466"/>
							<rect x="181.755" y="230.396" fill="#FEEB9C" width="13.437" height="1.464"/>
							<rect x="181.755" y="233.798" fill="#FEEB9C" width="13.437" height="1.466"/>
							<rect x="181.755" y="237.201" fill="#FEEB9C" width="13.437" height="1.467"/>
							<rect x="181.755" y="240.606" fill="#FF277E" width="13.437" height="1.465"/>
							<rect x="181.755" y="244.009" fill="#FF277E" width="13.437" height="1.467"/>
							<rect x="181.755" y="247.413" fill="#FF277E" width="13.437" height="1.467"/>
						</g>
					</g>
				</g>
				<g>
					<g>
						<g>
							<path fill="#01195F" d="M285.264,280.886h-86.405v-50.062c0-2.866,2.324-5.191,5.192-5.191h76.021
								c2.868,0,5.192,2.325,5.192,5.191V280.886z"/>
							<rect x="198.859" y="279.575" fill="#010D33" width="86.405" height="1.311"/>
							<path fill="#E8F9FF" d="M201.993,277.751v-46.927c0-1.132,0.924-2.057,2.058-2.057h76.021c1.135,0,2.058,0.925,2.058,2.057
								v46.927H201.993z"/>
							<path fill="#003399" d="M282.129,233.274v-2.45c0-1.132-0.923-2.057-2.058-2.057h-76.021c-1.134,0-2.058,0.925-2.058,2.057
								v2.45H282.129z"/>
							<path fill="#010D33" d="M290.752,280.884v3.526c0,5.086-4.121,9.209-9.208,9.209h-78.96c-5.086,0-9.208-4.123-9.208-9.209
								v-3.526H290.752z"/>
							<path fill="#01195F" d="M282.642,280.884v3.526c0,5.086-4.122,9.209-9.209,9.209h-70.849c-5.086,0-9.208-4.123-9.208-9.209
								v-3.526H282.642z"/>
							<path fill="#010D33" d="M251.653,284.55h-19.185c-1.357,0-2.457-1.1-2.457-2.457v-1.207h24.099v1.207
								C254.11,283.45,253.012,284.55,251.653,284.55z"/>
							<g>
								<circle fill="#FC0000" cx="268.937" cy="231.021" r="1.241"/>
								<circle fill="#F8C907" cx="272.987" cy="231.021" r="1.241"/>
								<circle fill="#55D4AA" cx="277.036" cy="231.021" r="1.241"/>
							</g>
						</g>
						<rect x="206.111" y="236.242" fill="#FF65AB" width="12.273" height="12.281"/>
						<rect x="222.043" y="236.242" fill="#BDE5F1" width="4.18" height="37.317"/>
						<path fill="#273F89" d="M224.134,257.962L224.134,257.962c-1.154,0-2.09-0.936-2.09-2.09v-1.942
							c0-1.154,0.936-2.089,2.09-2.089l0,0c1.154,0,2.09,0.935,2.09,2.089v1.942C226.224,257.026,225.288,257.962,224.134,257.962z"
							/>
						<rect x="206.108" y="250.841" fill="#BDE5F1" width="12.279" height="2.138"/>
						<rect x="206.108" y="254.379" fill="#BDE5F1" width="12.279" height="2.139"/>
						<rect x="206.108" y="257.916" fill="#BDE5F1" width="12.279" height="2.14"/>
						<rect x="206.108" y="267.884" fill="#BDE5F1" width="12.279" height="2.138"/>
						<rect x="206.108" y="271.421" fill="#BDE5F1" width="12.279" height="2.139"/>
						<g>
							<path fill="#FFFFFF" d="M218.384,247.262v1.262h-12.273v-1.262c1.01-2.391,3.377-4.067,6.136-4.067
								S217.373,244.871,218.384,247.262z"/>
							<circle fill="#FFFFFF" cx="212.247" cy="239.792" r="2.25"/>
						</g>
						<g>
							<rect x="229.62" y="236.242" fill="#566CD2" width="48.657" height="4.867"/>
							<rect x="229.62" y="241.109" fill="#FFFFFF" width="48.657" height="20.769"/>
							<rect x="232.624" y="244.173" fill="#273F89" width="11.56" height="14.641"/>
							<g>
								<rect x="249.474" y="244.173" fill="#BDE5F1" width="24.754" height="2.512"/>
								<rect x="249.474" y="250.237" fill="#BDE5F1" width="24.754" height="2.513"/>
								<rect x="249.474" y="256.303" fill="#BDE5F1" width="24.754" height="2.511"/>
							</g>
							<circle fill="#273F89" cx="271.746" cy="238.717" r="1.175"/>
							<circle fill="#FFFFFF" cx="275.402" cy="238.717" r="1.175"/>
						</g>
						<g>
							<rect x="229.62" y="261.878" fill="#566CD2" width="48.657" height="4.868"/>
							<rect x="229.623" y="266.744" fill="#FFFFFF" width="48.653" height="6.82"/>
							<rect x="232.624" y="269.81" fill="#273F89" width="11.56" height="3.755"/>
							<g>
								<rect x="249.474" y="269.81" fill="#BDE5F1" width="24.754" height="2.511"/>
							</g>
							<circle fill="#273F89" cx="271.746" cy="264.354" r="1.175"/>
							<circle fill="#FFFFFF" cx="275.402" cy="264.354" r="1.175"/>
						</g>
					</g>
					<g>
						<g>
							<path fill="#E19001" d="M223.821,202.099v11.396c0,1.724-1.396,3.119-3.12,3.119h-14.52l-5.392,4.985v-4.985h-1.191
								c-1.725,0-3.119-1.396-3.119-3.119v-11.396c0-1.716,1.395-3.111,3.119-3.111h21.103
								C222.426,198.987,223.821,200.383,223.821,202.099z"/>
							<path fill="#FFEA9B" d="M223.518,201.626v11.396c0,1.724-1.395,3.12-3.119,3.12h-14.217l-5.392,4.983v-4.983h-1.191
								c-1.725,0-3.119-1.396-3.119-3.12v-11.396c0-1.716,1.395-3.111,3.119-3.111h20.8
								C222.123,198.515,223.518,199.91,223.518,201.626z"/>
						</g>
						<g>
							<rect x="200.337" y="201.994" fill="#E19001" width="18.973" height="2.008"/>
							<rect x="200.337" y="206.297" fill="#E19001" width="18.973" height="2.009"/>
							<rect x="200.337" y="210.6" fill="#E19001" width="18.973" height="2.009"/>
						</g>
					</g>
					<g>
						<g>
							<path fill="#A6426F" d="M260.557,206.428v11.396c0,1.725,1.396,3.12,3.119,3.12h14.521l5.392,4.983v-4.983h1.191
								c1.725,0,3.119-1.396,3.119-3.12v-11.396c0-1.715-1.395-3.11-3.119-3.11h-21.104
								C261.952,203.317,260.557,204.713,260.557,206.428z"/>
							<path fill="#FF65AB" d="M260.86,205.956v11.395c0,1.725,1.395,3.119,3.118,3.119h14.218l5.392,4.984v-4.984h1.191
								c1.725,0,3.119-1.395,3.119-3.119v-11.395c0-1.718-1.395-3.111-3.119-3.111h-20.801
								C262.255,202.845,260.86,204.238,260.86,205.956z"/>
						</g>
						<g>
							<rect x="265.067" y="206.323" fill="#A6426F" width="18.973" height="2.009"/>
							<rect x="265.067" y="210.627" fill="#A6426F" width="18.973" height="2.007"/>
							<rect x="265.067" y="214.931" fill="#A6426F" width="18.973" height="2.007"/>
						</g>
					</g>
				</g>
			</g>
		</g>
	</g>
	<g>
		<g>
			<path fill="#FF65AB" d="M361.802,222.641c0.908-0.169,1.643-1.016,1.683-1.937c0.04-0.923-0.617-1.829-1.507-2.077
				c0.462,0.228,0.443,0.93,0.149,1.354c-0.293,0.424-0.763,0.693-1.096,1.089c-0.331,0.395-0.484,1.048-0.104,1.396
				C361.154,222.672,361.499,222.697,361.802,222.641z"/>
			<g>
				<g>
					<path fill="#003676" d="M332.965,293.195c0,0,1.086,8.437-1.103,8.55c-2.188,0.113-15.771-0.256-15.132-2.15
						c0.64-1.892,12.746-6.157,12.746-6.157L332.965,293.195z"/>
				</g>
				<g>
					<path fill="#0159C3" d="M336.783,293.691c0,0,2.155,8.229,0,8.62s-15.676,1.764-15.283-0.195
						c0.392-1.96,11.854-7.739,11.854-7.739L336.783,293.691z"/>
				</g>
				<path fill="#826448" d="M342.66,254.98l-1.009-0.342c-2.672-0.905-5.562,0.578-6.383,3.277l-10.834,35.562
					c1.33,1.939,6.669,3.428,9.371,2.395l8.854-21.808V254.98z"/>
				<path fill="#CFAC8C" d="M398.174,270.934l0.784,4.666c0,0-1.907,13.977-20.579,13.977c-7.81,0-27.188-13.812-32.433-17.66
					c-0.64-0.468-1.548-0.143-1.75,0.624l-6.238,23.697c-2.547,1.373-8.033,0.577-9.601-1.175l6.194-36.655
					c0.47-2.782,3.147-4.624,5.913-4.067l25.838,5.193L398.174,270.934z"/>
				<g>
					<path fill="#E98855" d="M374.531,249.091l-10.01-5.857c-0.704-0.396-1.477-0.648-2.279-0.742l-5.586-0.668
						c-1.184-0.141-2.336,0.438-2.931,1.47l-1.613,2.805c-0.22,0.382-0.056,0.869,0.349,1.042c0.277,0.119,0.601,0.055,0.812-0.16
						l1.884-1.917c0.198-0.201,0.503-0.249,0.752-0.118l1.568,0.822c0.459,0.24,0.844,0.6,1.131,1.031
						c0.664,0.998,2.171,2.717,4.194,1.729c0.46-0.225,1.015-0.134,1.425,0.175l10.305,7.766V249.091z"/>
					<path fill="#E98855" d="M360.704,248.653c0,0-4.563-0.238-4.661-1.316c-0.098-1.077,4.661-0.686,4.661-0.686V248.653z"/>
					<path fill="#E98855" d="M359.638,246.582l-4.958-1.096c-0.384-0.084-0.786-0.031-1.137,0.151l-2.229,1.164
						c-0.282,0.147-0.624,0.115-0.873-0.08l0,0c-0.363-0.284-0.416-0.814-0.115-1.166l1.338-1.556
						c0.781-0.908,1.979-1.344,3.161-1.15l5.234,0.862L359.638,246.582z"/>
				</g>
				<g>
					<path fill="#FEB37C" d="M379.386,223.759l-6.552,2.917c-3.441,1.527-7.445,0.101-9.186-3.184v-0.007
						c-0.078-0.141-0.148-0.282-0.212-0.432l-4.741-10.682l18.08-8.034l0.94,2.116l4.468,10.048
						C383.414,219.277,382.168,222.528,379.386,223.759z"/>
				</g>
				<polygon fill="#FEB37C" points="386.162,223.703 381.648,225.898 378.379,219.178 381.846,214.014 				"/>
				<path fill="#FF65AB" d="M389.759,223.399c5.679,6.545,18.159,24.906,9.199,52.2c0,0-22.989-2.481-32.655-16.066
					c0,0,8.567-12.301,10.908-25.714c0.768-4.389,3.16-8.323,6.814-10.868l0.306-0.213
					C386.045,221.544,388.389,221.821,389.759,223.399z"/>
				<g>
					<path fill="#FEB37C" d="M363.285,252.146l23.186,17.476c1.9,1.431,4.431,1.715,6.602,0.737l0,0
						c2.575-1.158,4.111-3.842,3.807-6.649l-1.84-16.976l-11.625,3.266l3.617,9.768c0.101,0.271-0.195,0.521-0.447,0.374
						l-23.004-13.464c-0.703-0.393-1.479-0.646-2.278-0.742l-5.589-0.668c-1.183-0.14-2.336,0.438-2.93,1.472l-1.612,2.806
						c-0.221,0.382-0.058,0.868,0.347,1.041l0,0c0.278,0.119,0.602,0.055,0.813-0.161l1.883-1.916
						c0.198-0.2,0.503-0.248,0.752-0.117l1.568,0.819c0.46,0.242,0.842,0.603,1.13,1.033c0.667,0.996,2.173,2.716,4.194,1.729
						C362.32,251.746,362.875,251.837,363.285,252.146z"/>
					<path fill="#FEB37C" d="M359.762,252.099c0,0-4.562-0.239-4.659-1.316c-0.098-1.078,4.659-0.686,4.659-0.686V252.099z"/>
					<path fill="#FEB37C" d="M358.695,250.028l-4.957-1.097c-0.385-0.084-0.787-0.032-1.138,0.152l-2.229,1.162
						c-0.282,0.148-0.622,0.117-0.874-0.078l0,0c-0.363-0.286-0.414-0.815-0.114-1.166l1.337-1.557
						c0.781-0.909,1.979-1.344,3.162-1.149l5.235,0.861L358.695,250.028z"/>
				</g>
				<path fill="#459EE0" d="M336.212,249.006l24.386,4.746c1.074,0.209,1.852,1.152,1.852,2.247l0,0c0,1.445-1.32,2.527-2.736,2.245
					l-24.365-4.861c-1.107-0.222-1.875-1.235-1.787-2.361l0,0C333.664,249.692,334.903,248.75,336.212,249.006z"/>
				<path fill="#7EC4F7" d="M326.588,221.131l11.246,29.065c0.4,1.019,0.022,2.181-0.901,2.769l0,0
					c-1.218,0.776-2.841,0.243-3.362-1.104l-11.139-29.106c-0.408-1.054,0.035-2.245,1.033-2.776l0,0
					C324.64,219.353,326.1,219.891,326.588,221.131z"/>
				<path fill="#6FB5E8" d="M439.84,293.689c-8.635,26.466-87.432,28.802-99.617-3.135c-0.809-2.107-1.325-4.373-1.505-6.787
					c0,0-0.698-20.055,15.438-15.354c16.129,4.702,33.763,13.756,38.465,6.873c4.702-6.873,4.295-35.424,4.295-35.424
					s2.335-15.822,16.278-15.895c1.237-0.008,2.499,0.291,3.777,0.863C431.29,231.188,447.152,271.306,439.84,293.689z"/>
				<path fill="#7EC4F7" d="M426.524,279.073c-6.99,21.411-59.899,27.03-86.302,11.481c-0.809-2.107-1.325-4.373-1.505-6.787
					c0,0-0.698-20.055,15.438-15.354c16.129,4.702,33.763,13.756,38.465,6.873c4.702-6.873,4.295-35.424,4.295-35.424
					s2.335-15.822,16.278-15.895c1.237-0.008,2.499,0.291,3.777,0.863C425.711,240.256,431.518,263.798,426.524,279.073z"/>
				<path fill="#40434C" d="M353.665,212.824c3.178,2.573,10.034,3.847,24.597-5.146l3.92,8.828c0,0,4.367,2.145,6.457-2.819
					c0.52-1.495-0.026-2.634-0.707-3.401c-1.002-1.127-1.583-2.558-1.815-4.046c-0.229-1.465-0.628-3.297-1.321-5.021
					c-1.467-3.658-5.609-5.349-9.213-3.755l-14.312,6.331c-1.441,0.637-3.003,0.938-4.578,0.92c-0.086,0-0.173,0-0.262,0.001
					C352.18,204.778,350.359,210.149,353.665,212.824z"/>
				<circle fill="#FEB37C" cx="379.364" cy="210.158" r="2.482"/>
				<path fill="#40434C" d="M379.386,223.759l-6.552,2.917c-3.441,1.527-7.445,0.101-9.186-3.184v-0.007
					c2.029-4.702,6.575-4.28,9.061-3.637c1.222,0.313,2.514,0.126,3.627-0.47l1.607-0.862c1.198-0.635,1.693-2.108,1.12-3.339
					l-4.515-10.228l2.14-1.223l5.495,12.774C383.414,219.277,382.168,222.528,379.386,223.759z"/>
				<path fill="#D2E8F5" d="M378.717,236.625l3.409,16.116c6.117,1.448,11.54,0.271,16.048-4.362l-4.32-15.466
					c-1.246-4.459-6.079-6.856-10.383-5.149l0,0C379.938,229.164,377.93,232.906,378.717,236.625z"/>
			</g>
			
				<ellipse transform="matrix(0.9711 -0.2389 0.2389 0.9711 -41.2111 93.5353)" fill="#40434C" cx="365.316" cy="216.803" rx="0.626" ry="1.173"/>
		</g>
		<path fill="#FFFFFF" d="M366.665,224.625c1.242,1.41,3.372,1.68,4.934,0.564c1.562-1.115,2-3.218,1.07-4.85L366.665,224.625z"/>
	</g>
</g>
</svg>
